<svg width="536" height="622" viewBox="0 0 536 622" fill="none" xmlns="http://www.w3.org/2000/svg">
<path d="M208.524 4.62407C116.924 58.6241 155.024 199.457 185.524 263.124C74.7237 205.523 20.6902 291.791 7.52339 342.125C-30.4766 518.925 84.6904 510.125 147.024 483.625C80.2239 615.625 180.857 628.958 239.524 619.125C405.124 576.725 399.191 471.792 375.524 424.625C524.324 387.025 542.524 270.625 533.024 217.125C513.424 129.925 400.524 164.125 346.524 192.125C394.924 141.325 403.024 105.292 401.024 93.625C379.824 28.425 310.857 115.458 279.024 167.125C283.824 117.525 277.024 68.791 273.024 50.6241C257.424 -6.57593 223.524 -3.87593 208.524 4.62407Z" fill="#B2D3FF"/>
</svg>
