<svg width="145" height="261" viewBox="0 0 145 261" fill="none" xmlns="http://www.w3.org/2000/svg">
<path d="M1.5 259.5C26.9493 258.503 82.8072 243.474 102.645 191.331C106.995 176.381 109.301 138.829 83.7207 108.212C77.8478 102.033 63.3613 93.7412 52.3985 110.006C48.7008 116.983 47.0477 133.806 70.0173 145.287C81.1105 149.473 100.687 155.079 116.348 145.287C133.203 134.748 158.95 93.4878 131.357 49.2376C120.046 31.099 92.3425 4.05212 90.8987 2.37091C86.9835 -2.18818 86.3309 12.3372 83.7207 18.5162C83.0682 19.712 83.7207 21.0272 91.5513 16.7217L105.255 9.54603C111.78 6.35722 118.567 0.45785 93.5089 2.37091" stroke="white" stroke-width="3" stroke-linecap="round"/>
</svg>
