<svg width="160" height="114" viewBox="0 0 160 114" fill="none" xmlns="http://www.w3.org/2000/svg">
<g filter="url(#filter0_d_1810_629)">
<path d="M72.9671 7.44063C73.5318 6.73236 74.4411 6.38099 75.3434 6.53547C76.3056 6.70034 77.0846 7.41037 77.3369 8.35339C77.6765 9.6227 79.4371 13.9875 83.4872 19.2257C85.4479 21.594 88.3568 25.4995 90.8294 29.6701C92.5746 32.6136 94.2515 35.9308 95.1084 39.0312C95.9894 38.1463 97.0214 36.5235 97.7595 33.5464C98.2774 30.4901 100.334 23.0606 104.779 15.3684C105.359 14.3648 106.554 13.892 107.664 14.2259C108.774 14.5598 109.509 15.6131 109.439 16.7703C109.291 19.2279 109.545 24.9798 111.406 29.0724L111.591 29.4632L111.649 29.589C113.036 32.8411 114.83 40.4775 113.13 49.0752C114.495 47.7194 116.98 45.1274 120.542 41.0781C120.574 41.042 120.607 41.0067 120.64 40.9725C121.749 39.8495 123.633 38.1831 125.781 36.7261C127.858 35.3175 130.518 33.8698 133.117 33.5965C134.133 33.4897 135.111 34.0126 135.589 34.916C136.066 35.8193 135.945 36.9217 135.284 37.7006C134.518 38.6035 133.291 40.2863 132.235 42.2583C131.16 44.2659 130.39 46.3373 130.285 48.0771C130.095 51.2164 129.378 56.0792 127.812 60.5844C126.817 63.4464 125.364 66.5007 123.236 68.7862C123.407 68.7749 123.583 68.7637 123.764 68.7506L123.828 68.7476C123.869 68.739 123.958 68.7208 124.103 68.6791C124.438 68.5833 124.961 68.4066 125.709 68.109C127.015 67.5894 128.928 66.7319 131.6 65.3725L132.793 64.7587C134.491 63.8234 137.305 62.5486 140.469 61.6233C143.627 60.6996 147.406 60.0419 150.849 60.6364C151.929 60.8231 152.761 61.6913 152.902 62.7779C153.043 63.8643 152.461 64.9162 151.465 65.3726C149.484 66.2802 146.39 67.9216 143.633 69.8488C142.256 70.8118 141.015 71.8104 140.051 72.7865C139.06 73.7901 138.509 74.6231 138.293 75.2356C138.273 75.291 138.252 75.3461 138.228 75.4C137.543 76.9794 136.307 79.3577 134.768 81.4425C133.999 82.4855 133.102 83.5265 132.104 84.3613C131.129 85.1769 129.877 85.9485 128.407 86.1513C128.296 86.1667 128.182 86.1747 128.069 86.1749L23.3013 86.339C22.5721 86.3401 21.8787 86.0227 21.403 85.47C20.9274 84.9173 20.7162 84.1846 20.8257 83.4638C21.3174 80.2329 24.1259 74.9102 30.9062 71.8153C29.5781 71.4749 27.8664 71.1904 25.6943 71.0591C22.9462 70.893 18.775 70.5184 15.1899 69.9243C13.4113 69.6295 11.6788 69.2645 10.3125 68.8126C9.63818 68.5895 8.93994 68.3093 8.34389 67.9422C7.84131 67.6327 6.9072 66.9607 6.58488 65.756C6.38857 65.0221 6.53694 64.2386 6.98749 63.627C7.43817 63.0154 8.14273 62.6416 8.90184 62.6117C10.1171 62.5639 12.1069 62.3488 13.9979 61.869C16.0317 61.3529 17.3544 60.675 17.8579 60.082L17.9773 59.9512C18.0186 59.9091 18.0609 59.868 18.105 59.8288C20.3571 57.8335 24.3805 55.2395 29.3772 53.6509C31.9299 52.8394 34.7739 52.2797 37.7879 52.2124C36.3003 51.1209 34.7568 50.1105 33.3259 49.3921C33.316 49.3872 33.3063 49.3818 33.2965 49.3767C30.8919 48.1291 27.2807 46.1294 24.2608 44.1756C22.7611 43.2054 21.3323 42.1988 20.26 41.2678C19.73 40.8077 19.2075 40.2979 18.8023 39.7621C18.4742 39.3282 17.8548 38.4097 17.9263 37.2261C18.0097 35.848 19.1945 34.7982 20.5726 34.8815C25.1188 35.1562 35.423 35.6353 42.4911 35.5184L43.8587 35.4876C45.8223 35.3992 49.3699 35.8489 53.1115 37.6464C52.7425 36.7823 52.3079 35.8935 51.8 35.0176C50.4297 32.89 48.3263 29.5665 46.4146 26.431C44.5352 23.3483 42.7045 20.2281 42.0484 18.6906C41.6183 17.6824 41.8957 16.5116 42.7317 15.8027C43.5677 15.0938 44.7674 15.012 45.6917 15.601C46.8466 16.3371 48.7012 17.4907 50.4951 18.5515C52.3554 19.6515 53.9541 20.5322 54.6963 20.8305C54.7478 20.8512 54.7987 20.8744 54.8487 20.8985C57.8309 22.3342 62.4988 24.8595 66.8929 27.8144C69.1891 29.3586 71.5288 31.0999 73.5279 32.9311C73.562 32.094 73.5842 31.2296 73.5864 30.3606C73.595 27.003 73.32 23.9138 72.6439 22.0297C72.6371 22.0108 72.6302 21.9919 72.6239 21.9728C72.1134 20.433 71.5105 17.9623 71.3211 15.4115C71.141 12.9863 71.2835 9.88642 72.8594 7.58675L72.9671 7.44063Z" fill="#FF99DB" stroke="white" stroke-width="5" stroke-linejoin="round"/>
<mask id="path-2-outside-1_1810_629" maskUnits="userSpaceOnUse" x="27.4082" y="85.0283" width="103" height="25" fill="black">
<rect fill="white" x="27.4082" y="85.0283" width="103" height="25"/>
<path d="M82.043 92.8477L71.7773 92.8477V95.6914L81.6279 95.6914V98.4355L71.7773 98.4355L71.7773 101.776L82.7256 101.776L82.7256 104.62L61.1562 104.62V90.0293L82.043 90.0293V92.8477ZM96.2422 99.2393L99.1787 90.0293L108.91 90.0293L111.699 99.2393L114.488 90.0293L124.812 90.0293L119.116 104.62L106.596 104.62L103.985 97.5977L101.493 104.62L88.7656 104.62L83.1582 90.0293H93.3643L96.2422 99.2393ZM47.9541 97.0176V90.0283L58.042 90.0283V104.619H47.8359L42.6143 97.3242L42.6143 104.619H32.4082L32.4082 90.0283L43.1484 90.0283L47.9541 97.0176Z"/>
</mask>
<path d="M82.043 92.8477L71.7773 92.8477V95.6914L81.6279 95.6914V98.4355L71.7773 98.4355L71.7773 101.776L82.7256 101.776L82.7256 104.62L61.1562 104.62V90.0293L82.043 90.0293V92.8477ZM96.2422 99.2393L99.1787 90.0293L108.91 90.0293L111.699 99.2393L114.488 90.0293L124.812 90.0293L119.116 104.62L106.596 104.62L103.985 97.5977L101.493 104.62L88.7656 104.62L83.1582 90.0293H93.3643L96.2422 99.2393ZM47.9541 97.0176V90.0283L58.042 90.0283V104.619H47.8359L42.6143 97.3242L42.6143 104.619H32.4082L32.4082 90.0283L43.1484 90.0283L47.9541 97.0176Z" fill="black"/>
<path d="M82.043 92.8477V97.8477C84.8044 97.8477 87.043 95.6091 87.043 92.8477H82.043ZM71.7773 92.8477V87.8477C69.0159 87.8477 66.7773 90.0862 66.7773 92.8477H71.7773ZM71.7773 95.6914H66.7773C66.7773 97.0175 67.3041 98.2893 68.2418 99.2269C69.1795 100.165 70.4513 100.691 71.7773 100.691V95.6914ZM81.6279 95.6914H86.6279C86.6279 94.3653 86.1011 93.0936 85.1635 92.1559C84.2258 91.2182 82.954 90.6914 81.6279 90.6914V95.6914ZM81.6279 98.4355V103.436C84.3894 103.436 86.6279 101.197 86.6279 98.4355H81.6279ZM71.7773 98.4355V93.4355C70.4513 93.4355 69.1795 93.9623 68.2418 94.9C67.3041 95.8377 66.7773 97.1095 66.7773 98.4355H71.7773ZM71.7773 101.776H66.7773C66.7773 104.538 69.0159 106.776 71.7773 106.776V101.776ZM82.7256 101.776H87.7256C87.7256 99.0149 85.487 96.7764 82.7256 96.7764V101.776ZM82.7256 104.62V109.62C84.0517 109.62 85.3234 109.093 86.2611 108.156C87.1988 107.218 87.7256 105.946 87.7256 104.62H82.7256ZM61.1562 104.62H56.1562C56.1562 107.382 58.3948 109.62 61.1562 109.62V104.62ZM61.1562 90.0293V85.0293C58.3948 85.0293 56.1562 87.2679 56.1562 90.0293H61.1562ZM82.043 90.0293H87.043C87.043 87.2679 84.8044 85.0293 82.043 85.0293V90.0293ZM96.2422 99.2393L91.4698 100.731C92.1204 102.813 94.0461 104.233 96.2277 104.239C98.4093 104.246 100.343 102.837 101.006 100.758L96.2422 99.2393ZM99.1787 90.0293V85.0293C97.0024 85.0293 95.0761 86.437 94.415 88.5104L99.1787 90.0293ZM108.91 90.0293L113.696 88.5801C113.057 86.4715 111.113 85.0293 108.91 85.0293V90.0293ZM111.699 99.2393L106.914 100.688C107.552 102.797 109.496 104.239 111.699 104.239C113.902 104.239 115.846 102.797 116.485 100.688L111.699 99.2393ZM114.488 90.0293V85.0293C112.285 85.0293 110.341 86.4715 109.703 88.5801L114.488 90.0293ZM124.812 90.0293L129.47 91.8476C130.071 90.309 129.873 88.5729 128.941 87.209C128.009 85.8451 126.464 85.0293 124.812 85.0293V90.0293ZM119.116 104.62V109.62C121.176 109.62 123.025 108.357 123.774 106.438L119.116 104.62ZM106.596 104.62L101.909 106.362C102.637 108.321 104.506 109.62 106.596 109.62V104.62ZM103.985 97.5977L108.672 95.8555C107.939 93.8842 106.051 92.5822 103.948 92.5978C101.845 92.6134 99.9767 93.9434 99.2733 95.9254L103.985 97.5977ZM101.493 104.62V109.62C103.61 109.62 105.497 108.287 106.205 106.292L101.493 104.62ZM88.7656 104.62L84.0984 106.414C84.8408 108.345 86.6963 109.62 88.7656 109.62V104.62ZM83.1582 90.0293V85.0293C81.5111 85.0293 79.9697 85.8405 79.037 87.1981C78.1044 88.5557 77.9001 90.2855 78.491 91.823L83.1582 90.0293ZM93.3643 90.0293L98.1367 88.538C97.4844 86.4506 95.5512 85.0293 93.3643 85.0293V90.0293ZM47.9541 97.0176L43.834 99.8504C45.0749 101.655 47.3458 102.442 49.4373 101.793C51.5288 101.143 52.9541 99.2077 52.9541 97.0176H47.9541ZM47.9541 90.0283V85.0283C45.1927 85.0283 42.9541 87.2669 42.9541 90.0283H47.9541ZM58.042 90.0283H63.042C63.042 88.7022 62.5152 87.4305 61.5775 86.4928C60.6398 85.5551 59.3681 85.0283 58.042 85.0283V90.0283ZM58.042 104.619V109.619C60.8034 109.619 63.042 107.381 63.042 104.619H58.042ZM47.8359 104.619L43.7702 107.529C44.709 108.841 46.2229 109.619 47.8359 109.619L47.8359 104.619ZM42.6143 97.3242L46.68 94.414C45.4154 92.6473 43.1547 91.8994 41.086 92.5635C39.0173 93.2276 37.6143 95.1516 37.6143 97.3242H42.6143ZM42.6143 104.619L42.6143 109.619C45.3757 109.619 47.6143 107.381 47.6143 104.619H42.6143ZM32.4082 104.619H27.4082C27.4082 107.381 29.6468 109.619 32.4082 109.619V104.619ZM32.4082 90.0283L32.4082 85.0283C31.0821 85.0283 29.8104 85.5551 28.8727 86.4928C27.935 87.4305 27.4082 88.7022 27.4082 90.0283H32.4082ZM43.1484 90.0283L47.2685 87.1955C46.3357 85.8388 44.7948 85.0283 43.1484 85.0283V90.0283ZM82.043 92.8477V87.8477L71.7773 87.8477V92.8477V97.8477L82.043 97.8477V92.8477ZM71.7773 92.8477H66.7773V95.6914H71.7773L76.7773 95.6914V92.8477L71.7773 92.8477ZM71.7773 95.6914V100.691L81.6279 100.691V95.6914V90.6914L71.7773 90.6914V95.6914ZM81.6279 95.6914L76.6279 95.6914V98.4355L81.6279 98.4355H86.6279V95.6914H81.6279ZM81.6279 98.4355V93.4355L71.7773 93.4355V98.4355V103.436L81.6279 103.436V98.4355ZM71.7773 98.4355H66.7773V101.776H71.7773H76.7773V98.4355H71.7773ZM71.7773 101.776V106.776H82.7256V101.776V96.7764L71.7773 96.7764V101.776ZM82.7256 101.776L77.7256 101.776V104.62L82.7256 104.62H87.7256V101.776H82.7256ZM82.7256 104.62V99.6201L61.1562 99.6201V104.62V109.62H82.7256V104.62ZM61.1562 104.62H66.1562V90.0293H61.1562H56.1562V104.62H61.1562ZM61.1562 90.0293V95.0293L82.043 95.0293V90.0293V85.0293L61.1562 85.0293V90.0293ZM82.043 90.0293H77.043V92.8477H82.043H87.043V90.0293H82.043ZM96.2422 99.2393L101.006 100.758L103.942 91.5482L99.1787 90.0293L94.415 88.5104L91.4785 97.7204L96.2422 99.2393ZM99.1787 90.0293V95.0293H108.91V90.0293V85.0293H99.1787V90.0293ZM108.91 90.0293L104.125 91.4785L106.914 100.688L111.699 99.2393L116.485 97.7901L113.696 88.5801L108.91 90.0293ZM111.699 99.2393L116.485 100.688L119.274 91.4785L114.488 90.0293L109.703 88.5801L106.914 97.7901L111.699 99.2393ZM114.488 90.0293V95.0293H124.812V90.0293V85.0293H114.488V90.0293ZM124.812 90.0293L120.155 88.2109L114.459 102.802L119.116 104.62L123.774 106.438L129.47 91.8476L124.812 90.0293ZM119.116 104.62V99.6201H106.596V104.62V109.62H119.116V104.62ZM106.596 104.62L111.282 102.878L108.672 95.8555L103.985 97.5977L99.2987 99.3398L101.909 106.362L106.596 104.62ZM103.985 97.5977L99.2733 95.9254L96.7811 102.948L101.493 104.62L106.205 106.292L108.697 99.2699L103.985 97.5977ZM101.493 104.62V99.6201H88.7656V104.62V109.62H101.493V104.62ZM88.7656 104.62L93.4328 102.826L87.8254 88.2356L83.1582 90.0293L78.491 91.823L84.0984 106.414L88.7656 104.62ZM83.1582 90.0293V95.0293H93.3643V90.0293V85.0293H83.1582V90.0293ZM93.3643 90.0293L88.5918 91.5206L91.4698 100.731L96.2422 99.2393L101.015 97.748L98.1367 88.538L93.3643 90.0293ZM47.9541 97.0176H52.9541V90.0283H47.9541H42.9541V97.0176H47.9541ZM47.9541 90.0283V95.0283H58.042V90.0283V85.0283H47.9541V90.0283ZM58.042 90.0283H53.042V104.619H58.042H63.042V90.0283H58.042ZM58.042 104.619V99.6191H47.8359V104.619L47.8359 109.619H58.042V104.619ZM47.8359 104.619L51.9017 101.709L46.68 94.414L42.6143 97.3242L38.5485 100.234L43.7702 107.529L47.8359 104.619ZM42.6143 97.3242H37.6143V104.619H42.6143H47.6143V97.3242H42.6143ZM42.6143 104.619V99.6191H32.4082L32.4082 104.619V109.619H42.6143L42.6143 104.619ZM32.4082 104.619H37.4082V90.0283H32.4082H27.4082L27.4082 104.619H32.4082ZM32.4082 90.0283L32.4082 95.0283H43.1484V90.0283V85.0283H32.4082L32.4082 90.0283ZM43.1484 90.0283L39.0284 92.8612L43.834 99.8504L47.9541 97.0176L52.0742 94.1847L47.2685 87.1955L43.1484 90.0283Z" fill="white" mask="url(#path-2-outside-1_1810_629)"/>
</g>
<defs>
<filter id="filter0_d_1810_629" x="0" y="0" width="159.424" height="113.62" filterUnits="userSpaceOnUse" color-interpolation-filters="sRGB">
<feFlood flood-opacity="0" result="BackgroundImageFix"/>
<feColorMatrix in="SourceAlpha" type="matrix" values="0 0 0 0 0 0 0 0 0 0 0 0 0 0 0 0 0 0 127 0" result="hardAlpha"/>
<feOffset/>
<feGaussianBlur stdDeviation="2"/>
<feComposite in2="hardAlpha" operator="out"/>
<feColorMatrix type="matrix" values="0 0 0 0 0 0 0 0 0 0 0 0 0 0 0 0 0 0 0.25 0"/>
<feBlend mode="normal" in2="BackgroundImageFix" result="effect1_dropShadow_1810_629"/>
<feBlend mode="normal" in="SourceGraphic" in2="effect1_dropShadow_1810_629" result="shape"/>
</filter>
</defs>
</svg>
