<svg width="539" height="625" viewBox="0 0 539 625" fill="none" xmlns="http://www.w3.org/2000/svg">
<path d="M210.024 6.12505C118.424 60.125 156.524 200.958 187.024 264.625C76.2237 207.024 22.1902 293.292 9.02339 343.626C-28.9766 520.426 86.1904 511.626 148.524 485.126C81.7239 617.126 182.357 630.459 241.024 620.626C406.624 578.226 400.691 473.293 377.024 426.126C525.824 388.526 544.024 272.126 534.524 218.626C514.924 131.426 402.024 165.626 348.024 193.626C396.424 142.826 404.524 106.793 402.524 95.126C381.324 29.926 312.357 116.959 280.524 168.626C285.324 119.026 278.524 70.292 274.524 52.125C258.924 -5.07495 225.024 -2.37495 210.024 6.12505Z" fill="#B2D3FF" stroke="#B2D3FF" stroke-width="3" stroke-linecap="round" stroke-linejoin="round"/>
</svg>
