<svg width="100" height="100" viewBox="0 0 100 100" fill="none" xmlns="http://www.w3.org/2000/svg">
<path d="M17.5 2H82.5C91.0604 2 98 8.93959 98 17.5V82.5C98 91.0604 91.0604 98 82.5 98H17.5C8.93959 98 2 91.0604 2 82.5V17.5C2 8.93959 8.93959 2 17.5 2Z" stroke="white" stroke-width="4"/>
<path d="M22.498 70.8968V28.5841C22.498 28.2812 22.6497 28.1298 22.953 28.1298C26.2462 28.0433 30.4276 28 35.4974 28C41.4771 28 45.8535 29.3412 48.6267 32.0236C51.4432 34.706 52.8515 38.0157 52.8515 41.9528C52.8515 46.8417 51.1182 50.4759 47.6517 52.8555C44.1853 55.235 39.8305 56.4248 34.5874 56.4248H30.7526V70.8319C30.7526 71.178 30.5793 71.351 30.2326 71.351H23.018C22.6714 71.351 22.498 71.1996 22.498 70.8968ZM30.7526 34.2301V50.1947C31.3593 50.2812 32.7675 50.3245 34.9774 50.3245C37.8806 50.3245 40.2205 49.6972 41.997 48.4425C43.8169 47.1445 44.7269 45.0462 44.7269 42.1475C44.7269 39.5949 43.9253 37.6264 42.322 36.2419C40.7621 34.8574 38.4872 34.1652 35.4974 34.1652C34.7607 34.1652 34.0241 34.1868 33.2875 34.2301C32.5942 34.2301 32.0092 34.2301 31.5326 34.2301C31.0993 34.2301 30.8393 34.2301 30.7526 34.2301Z" fill="white"/>
<path d="M75.5282 47.2094C73.1016 45.6952 70.5668 44.9381 67.9236 44.9381C66.407 44.9381 65.2804 45.2193 64.5437 45.7817C63.8505 46.3441 63.5038 47.0147 63.5038 47.7935C63.5038 48.5723 63.8071 49.2645 64.4138 49.8702C65.0204 50.4326 66.2987 51.1032 68.2486 51.882C71.845 53.2665 74.3582 54.7375 75.7882 56.295C77.2614 57.8092 77.998 59.7778 77.998 62.2006C77.998 65.1426 76.8714 67.5221 74.6182 69.3392C72.4083 71.1131 69.3968 72 65.5837 72C61.7706 72 58.6507 71.3078 56.2242 69.9233C55.9642 69.8368 55.8342 69.6205 55.8342 69.2743V63.2389C55.8342 63.0659 55.8775 62.9577 55.9642 62.9145C56.0942 62.8279 56.2025 62.8279 56.2892 62.9145C59.1057 64.9911 62.1172 66.0295 65.3237 66.0295C66.8403 66.0295 67.9886 65.7699 68.7685 65.2507C69.5918 64.6883 70.0035 63.9744 70.0035 63.1091C70.0035 62.2006 69.6785 61.4435 69.0285 60.8378C68.3785 60.1888 67.1003 59.4966 65.1937 58.7611C61.7272 57.4199 59.3007 55.9921 57.9141 54.4779C56.5708 52.9204 55.8992 50.9735 55.8992 48.6372C55.8992 45.9548 56.9175 43.705 58.954 41.8879C60.9906 40.0708 63.8938 39.1622 67.6636 39.1622C71.1734 39.1622 73.8816 39.6382 75.7882 40.59C76.0048 40.7198 76.1131 41.001 76.1131 41.4336V46.8201C76.1131 47.3392 75.9182 47.469 75.5282 47.2094Z" fill="white"/>
</svg>
