<svg width="104" height="104" viewBox="0 0 104 104" fill="none" xmlns="http://www.w3.org/2000/svg">
<rect x="2" y="2" width="100" height="100" rx="20" stroke="white" stroke-width="4"/>
<g clip-path="url(#clip0_1805_488)">
<path fill-rule="evenodd" clip-rule="evenodd" d="M52 27C38.1875 27 27 38.1875 27 52C27 63.0625 34.1562 72.4062 44.0937 75.7187C45.3437 75.9375 45.8125 75.1875 45.8125 74.5312C45.8125 73.9375 45.7812 71.9687 45.7812 69.875C39.5 71.0312 37.875 68.3437 37.375 66.9375C37.0937 66.2187 35.875 64 34.8125 63.4062C33.9375 62.9375 32.6875 61.7812 34.7812 61.75C36.75 61.7187 38.1562 63.5625 38.625 64.3125C40.875 68.0937 44.4687 67.0312 45.9062 66.375C46.125 64.75 46.7812 63.6562 47.5 63.0312C41.9375 62.4062 36.125 60.25 36.125 50.6875C36.125 47.9687 37.0937 45.7187 38.6875 43.9687C38.4375 43.3437 37.5625 40.7812 38.9375 37.3437C38.9375 37.3437 41.0312 36.6875 45.8125 39.9062C47.8125 39.3437 49.9375 39.0625 52.0625 39.0625C54.1875 39.0625 56.3125 39.3437 58.3125 39.9062C63.0937 36.6562 65.1875 37.3437 65.1875 37.3437C66.5625 40.7812 65.6875 43.3437 65.4375 43.9687C67.0312 45.7187 68 47.9375 68 50.6875C68 60.2812 62.1562 62.4062 56.5937 63.0312C57.5 63.8125 58.2812 65.3125 58.2812 67.6562C58.2812 71 58.25 73.6875 58.25 74.5312C58.25 75.1875 58.7187 75.9687 59.9687 75.7187C69.8437 72.4062 77 63.0312 77 52C77 38.1875 65.8125 27 52 27Z" fill="white"/>
</g>
<defs>
<clipPath id="clip0_1805_488">
<rect width="50" height="50" fill="white" transform="translate(27 27)"/>
</clipPath>
</defs>
</svg>
