<svg width="104" height="104" viewBox="0 0 104 104" fill="none" xmlns="http://www.w3.org/2000/svg">
<g clip-path="url(#clip0_1805_493)">
<g clip-path="url(#clip1_1805_493)">
<path d="M52.0001 57.8093C54.9709 57.8093 57.3792 55.4322 57.3792 52.4999C57.3792 49.5676 54.9709 47.1904 52.0001 47.1904C49.0294 47.1904 46.6211 49.5676 46.6211 52.4999C46.6211 55.4322 49.0294 57.8093 52.0001 57.8093Z" fill="white"/>
<path fill-rule="evenodd" clip-rule="evenodd" d="M26.2469 49.1868C24.9418 50.3498 24.3935 51.4714 24.3935 52.4998C24.3935 53.5282 24.9418 54.6499 26.2469 55.8128C27.5519 56.9756 29.5108 58.0796 32.0385 59.0323C37.0852 60.9343 44.1421 62.1367 51.9994 62.1367C59.8567 62.1367 66.9136 60.9343 71.9603 59.0323C74.488 58.0796 76.4469 56.9756 77.7519 55.8128C79.057 54.6499 79.6053 53.5282 79.6053 52.4998C79.6053 51.4714 79.057 50.3498 77.7519 49.1868C76.4469 48.024 74.488 46.92 71.9603 45.9674C66.9136 44.0654 59.8567 42.8629 51.9994 42.8629C44.1421 42.8629 37.0852 44.0654 32.0385 45.9674C29.5108 46.92 27.5519 48.024 26.2469 49.1868ZM31.1416 43.6486C36.5413 41.6135 43.916 40.3809 51.9994 40.3809C60.0828 40.3809 67.4576 41.6135 72.8573 43.6486C75.5528 44.6645 77.8208 45.9044 79.4369 47.3444C81.0529 48.7843 82.1199 50.5244 82.1199 52.4998C82.1199 54.4752 81.0529 56.2153 79.4369 57.6552C77.8208 59.0952 75.5528 60.3352 72.8573 61.3511C67.4576 63.3861 60.0828 64.6188 51.9994 64.6188C43.916 64.6188 36.5413 63.3861 31.1416 61.3511C28.446 60.3352 26.1781 59.0952 24.5619 57.6552C22.9459 56.2153 21.8789 54.4752 21.8789 52.4998C21.8789 50.5244 22.9459 48.7843 24.5619 47.3444C26.1781 45.9044 28.446 44.6645 31.1416 43.6486Z" fill="white"/>
<path fill-rule="evenodd" clip-rule="evenodd" d="M42.0301 28.8292C40.3572 28.295 39.099 28.3872 38.1967 28.9014C37.2944 29.4156 36.5844 30.4451 36.2167 32.1422C35.8489 33.8391 35.8597 36.0657 36.2878 38.7027C37.1424 43.9678 39.6158 50.6014 43.5445 57.3179C47.4731 64.0345 52.0565 69.4657 56.2487 72.8287C58.3483 74.5131 60.2965 75.6356 61.9692 76.1697C63.642 76.7039 64.9003 76.6118 65.8026 76.0976C66.7049 75.5834 67.4149 74.5539 67.7826 72.8568C68.1503 71.1598 68.1395 68.9333 67.7115 66.2962C66.8569 61.0312 64.3835 54.3976 60.4548 47.681C56.5262 40.9645 51.9427 35.5333 47.7506 32.1703C45.651 30.4859 43.7028 29.3634 42.0301 28.8292ZM49.3366 30.2441C53.8219 33.8424 58.5908 39.5301 62.6325 46.44C66.6742 53.3499 69.2801 60.2703 70.1944 65.9036C70.6509 68.7157 70.697 71.2744 70.2416 73.3759C69.7862 75.4773 68.7931 77.2594 67.0599 78.2471C65.3267 79.2348 63.2665 79.1927 61.1952 78.5313C59.1237 77.8698 56.9018 76.5511 54.6627 74.7548C50.1773 71.1566 45.4085 65.4688 41.3668 58.559C37.325 51.6491 34.7192 44.7287 33.8048 39.0954C33.3484 36.2832 33.3023 33.7246 33.7577 31.6231C34.213 29.5217 35.2062 27.7396 36.9394 26.7519C38.6726 25.7641 40.7328 25.8062 42.8041 26.4677C44.8756 27.1292 47.0975 28.4479 49.3366 30.2441Z" fill="white"/>
<path fill-rule="evenodd" clip-rule="evenodd" d="M67.7832 32.1424C67.4154 30.4453 66.7055 29.4158 65.8032 28.9016C64.9009 28.3874 63.6426 28.2952 61.9697 28.8294C60.297 29.3636 58.3489 30.4861 56.2492 32.1705C52.0571 35.5335 47.4737 40.9647 43.545 47.6812C39.6164 54.3978 37.1429 61.0314 36.2884 66.2964C35.8603 68.9335 35.8495 71.16 36.2172 72.857C36.585 74.5541 37.2949 75.5836 38.1973 76.0978C39.0996 76.612 40.3578 76.7041 42.0307 76.1699C43.7034 75.6358 45.6515 74.5133 47.7512 72.8289C51.9433 69.4659 56.5268 64.0347 60.4554 57.3181C64.384 50.6015 66.8575 43.968 67.7121 38.7029C68.1401 36.0659 68.1509 33.8393 67.7832 32.1424ZM70.195 39.0956C69.2807 44.7289 66.6748 51.6493 62.6331 58.5592C58.5914 65.469 53.8225 71.1568 49.3372 74.755C47.0981 76.5513 44.8762 77.87 42.8047 78.5315C40.7333 79.1929 38.6732 79.235 36.94 78.2473C35.2068 77.2596 34.2136 75.4775 33.7583 73.3761C33.3029 71.2746 33.349 68.7159 33.8054 65.9038C34.7198 60.2705 37.3256 53.3501 41.3673 46.4402C45.409 39.5303 50.1779 33.8426 54.6633 30.2443C56.9024 28.4481 59.1242 27.1293 61.1958 26.4679C63.2671 25.8064 65.3273 25.7643 67.0605 26.752C68.7937 27.7398 69.7868 29.5219 70.2422 31.6232C70.6976 33.7248 70.6515 36.2834 70.195 39.0956Z" fill="white"/>
</g>
</g>
<rect x="2" y="2" width="100" height="100" rx="20" stroke="white" stroke-width="4"/>
<defs>
<clipPath id="clip0_1805_493">
<rect x="2" y="2" width="100" height="100" rx="20" fill="white"/>
</clipPath>
<clipPath id="clip1_1805_493">
<rect width="60.3504" height="53" fill="white" transform="translate(21.8242 26)"/>
</clipPath>
</defs>
</svg>
