<svg width="104" height="104" viewBox="0 0 104 104" fill="none" xmlns="http://www.w3.org/2000/svg">
<g clip-path="url(#clip0_1805_465)">
<path d="M36.4998 31.9801H52.0328V21H24.5L24.7627 23.9457L27.4615 54.2039H52.0328V43.2238H37.5033L36.4998 31.9801V31.9801ZM38.9745 59.6941H27.9521L29.4903 76.9345L51.9823 83.1779L52.0328 83.1642V71.7403L51.9847 71.753L39.7563 68.4511L38.9745 59.6941V59.6941Z" fill="#E9E9E9"/>
<path d="M51.9964 54.2039H65.5172L64.2424 68.4442L51.9961 71.7496V83.1728L74.506 76.9345L74.671 75.0793L77.2516 46.1723L77.5194 43.2238H51.9964V54.2039ZM51.9964 31.9532V31.9801H78.5185L78.7385 29.5122L79.2391 23.9457L79.5014 21H51.9964V31.9536V31.9532Z" fill="white"/>
</g>
<rect x="2" y="2" width="100" height="100" rx="20" stroke="white" stroke-width="4"/>
<defs>
<clipPath id="clip0_1805_465">
<rect x="2" y="2" width="100" height="100" rx="20" fill="white"/>
</clipPath>
</defs>
</svg>
