<svg width="104" height="104" viewBox="0 0 104 104" fill="none" xmlns="http://www.w3.org/2000/svg">
<rect x="2" y="2" width="100" height="100" rx="20" stroke="white" stroke-width="4"/>
<g clip-path="url(#clip0_1805_505)">
<path fill-rule="evenodd" clip-rule="evenodd" d="M36.3691 35.8977C37.9162 37.1547 38.4966 37.0588 41.4019 36.865L68.7914 35.2204C69.3723 35.2204 68.8893 34.6408 68.6955 34.5445L64.1467 31.2561C63.2751 30.5794 62.1139 29.8045 59.8883 29.9983L33.3671 31.9327C32.3998 32.0286 32.2067 32.5122 32.5918 32.8998L36.3691 35.8977ZM38.0135 42.2809V71.0994C38.0135 72.6482 38.7875 73.2276 40.5294 73.1318L70.6305 71.39C72.3733 71.2942 72.5675 70.2289 72.5675 68.9707V40.3456C72.5675 39.0895 72.0842 38.4121 71.0174 38.5088L39.5615 40.3456C38.4006 40.4432 38.0134 41.0239 38.0134 42.2809H38.0135ZM67.7291 43.8267C67.9221 44.698 67.7291 45.5684 66.8562 45.6664L65.406 45.9554V67.231C64.1467 67.9078 62.9855 68.2947 62.0179 68.2947C60.4687 68.2947 60.0807 67.8108 58.9203 66.361L49.4335 51.4679V65.8774L52.4355 66.5548C52.4355 66.5548 52.4355 68.2947 50.0135 68.2947L43.3366 68.6821C43.1427 68.2947 43.3366 67.3285 44.0139 67.1349L45.7563 66.652V47.5999L43.3371 47.406C43.143 46.5348 43.6263 45.2786 44.9823 45.1811L52.1451 44.6983L62.0179 59.7852V46.4389L59.5007 46.15C59.3075 45.0849 60.0807 44.3115 61.0487 44.2156L67.7291 43.8267ZM31.1403 29.3217L58.7266 27.2902C62.1143 26.9996 62.9859 27.1943 65.1151 28.7409L73.9211 34.9302C75.3741 35.9945 75.8584 36.2843 75.8584 37.4445V71.39C75.8584 73.5174 75.0833 74.7756 72.3738 74.9681L40.3377 76.9027C38.3037 76.9996 37.3357 76.7098 36.2705 75.355L29.7857 66.9413C28.6239 65.3925 28.1406 64.2339 28.1406 62.8783V32.7053C28.1406 30.9656 28.9159 29.5143 31.1403 29.3217V29.3217Z" fill="white"/>
</g>
<defs>
<clipPath id="clip0_1805_505">
<rect width="50" height="50" fill="white" transform="translate(27 27)"/>
</clipPath>
</defs>
</svg>
