<svg width="100" height="100" viewBox="0 0 100 100" fill="none" xmlns="http://www.w3.org/2000/svg">
<g clip-path="url(#clip0_1805_445)">
<path d="M2 18.1602C1.99809 16.0306 2.40562 13.9223 3.19824 11.957C3.99088 9.99185 5.15296 8.2097 6.61426 6.71094C8.07545 5.21232 9.80721 4.02604 11.71 3.21875C13.6126 2.41152 15.6502 1.99806 17.7061 2H82.2939C84.3498 1.99806 86.3874 2.41152 88.29 3.21875C90.1929 4.02607 91.9255 5.21223 93.3867 6.71094C94.8479 8.20964 96.0092 9.99198 96.8018 11.957C97.5944 13.9223 98.0019 16.0306 98 18.1602V81.8398C98.0019 83.9694 97.5944 86.0777 96.8018 88.043C96.0092 90.008 94.8479 91.7904 93.3867 93.2891C91.9255 94.7878 90.1929 95.9739 88.29 96.7812C86.3874 97.5885 84.3498 98.0019 82.2939 98H17.7061C15.6502 98.0019 13.6126 97.5885 11.71 96.7812C9.80721 95.974 8.07546 94.7877 6.61426 93.2891C5.15296 91.7903 3.99088 90.0081 3.19824 88.043C2.40562 86.0777 1.99809 83.9694 2 81.8398V18.1602Z" stroke="white" stroke-width="4"/>
<path d="M40.4186 81.0003C46.1716 81.0003 50.8353 76.3366 50.8353 70.5837V60.167H40.4186C34.6657 60.167 30.002 64.8307 30.002 70.5837C30.002 76.3366 34.6657 81.0003 40.4186 81.0003Z" fill="white" fill-opacity="0.9"/>
<path d="M30 49.7507C30 43.9977 34.6637 39.334 40.4167 39.334H50.8333V60.1673H40.4167C34.6637 60.1673 30 55.5036 30 49.7507Z" fill="white" fill-opacity="0.95"/>
<path d="M30 28.9167C30 23.1637 34.6637 18.5 40.4167 18.5H50.8333V39.3333H40.4167C34.6637 39.3333 30 34.6696 30 28.9167Z" fill="white"/>
<path d="M50.832 18.5H61.2487C67.0017 18.5 71.6654 23.1637 71.6654 28.9167C71.6654 34.6696 67.0017 39.3333 61.2487 39.3333H50.832V18.5Z" fill="white" fill-opacity="0.9"/>
<path d="M71.6673 49.7507C71.6673 55.5036 67.0036 60.1673 61.2507 60.1673C55.4977 60.1673 50.834 55.5036 50.834 49.7507C50.834 43.9977 55.4977 39.334 61.2507 39.334C67.0036 39.334 71.6673 43.9977 71.6673 49.7507Z" fill="white" fill-opacity="0.85"/>
</g>
<defs>
<clipPath id="clip0_1805_445">
<rect width="100" height="100" fill="white"/>
</clipPath>
</defs>
</svg>
