<svg width="104" height="104" viewBox="0 0 104 104" fill="none" xmlns="http://www.w3.org/2000/svg">
<rect x="2" y="2" width="100" height="100" rx="20" stroke="white" stroke-width="4"/>
<g filter="url(#filter0_d_1805_508)">
<g style="mix-blend-mode:multiply" opacity="0.2">
<g style="mix-blend-mode:multiply" opacity="0.2">
<path d="M81.1263 21.958H36.043C34.4896 21.958 33.2305 23.2173 33.2305 24.7706V79.2498C33.2305 80.8029 34.4896 82.0623 36.043 82.0623H81.1263C82.6796 82.0623 83.9388 80.8029 83.9388 79.2498V24.7706C83.9388 23.2173 82.6796 21.958 81.1263 21.958Z" fill="white"/>
</g>
</g>
<g style="mix-blend-mode:multiply" opacity="0.12">
<g style="mix-blend-mode:multiply" opacity="0.12">
<path d="M81.1263 21.959H36.043C34.4896 21.959 33.2305 23.2182 33.2305 24.7715V79.2507C33.2305 80.804 34.4896 82.0632 36.043 82.0632H81.1263C82.6796 82.0632 83.9388 80.804 83.9388 79.2507V24.7715C83.9388 23.2182 82.6796 21.959 81.1263 21.959Z" fill="white"/>
</g>
</g>
<path d="M36.0417 82.0423H81.1667C81.537 82.045 81.9038 81.9742 82.2463 81.8338C82.5888 81.6936 82.8999 81.4865 83.1617 81.2248C83.4234 80.9629 83.6305 80.6519 83.7709 80.3094C83.9111 79.9669 83.9819 79.5998 83.9792 79.2298V67.0215H33.2501V79.2298C33.2474 79.5982 33.3176 79.9634 33.4565 80.3046C33.5957 80.6457 33.8009 80.9559 34.0603 81.2173C34.3199 81.4788 34.6286 81.6863 34.9686 81.8277C35.3086 81.9694 35.6734 82.0423 36.0417 82.0423Z" fill="#C3C3C3"/>
<path d="M81.1667 21.958H36.0417C35.6734 21.958 35.3086 22.0309 34.9686 22.1725C34.6286 22.3141 34.3199 22.5216 34.0603 22.783C33.8009 23.0445 33.5957 23.3547 33.4565 23.6957C33.3176 24.037 33.2474 24.4022 33.2501 24.7705V36.9789H83.9167V24.7705C83.9224 24.0337 83.6363 23.3245 83.1213 22.7977C82.6061 22.2708 81.9036 21.969 81.1667 21.958Z" fill="white"/>
<path d="M83.9388 52H33.2305V67.0208H83.9388V52Z" fill="#E1E1E1"/>
<path d="M83.9388 36.9795H33.2305V52.0003H83.9388V36.9795Z" fill="#F1F1F1"/>
</g>
<g style="mix-blend-mode:multiply" opacity="0.48">
<g style="mix-blend-mode:multiply" opacity="0.48">
<path d="M49.1875 35.1045H21C19.4467 35.1045 18.1875 36.3637 18.1875 37.917V66.1045C18.1875 67.6578 19.4467 68.917 21 68.917H49.1875C50.7409 68.917 52 67.6578 52 66.1045V37.917C52 36.3637 50.7409 35.1045 49.1875 35.1045Z" fill="white"/>
</g>
</g>
<g style="mix-blend-mode:multiply" opacity="0.24">
<g style="mix-blend-mode:multiply" opacity="0.24">
<path d="M49.1875 35.1045H21C19.4467 35.1045 18.1875 36.3637 18.1875 37.917V66.1045C18.1875 67.6576 19.4467 68.917 21 68.917H49.1875C50.7409 68.917 52 67.6576 52 66.1045V37.917C52 36.3637 50.7409 35.1045 49.1875 35.1045Z" fill="white"/>
</g>
</g>
<g filter="url(#filter1_d_1805_508)">
<path d="M49.1875 35.1045H21C19.4467 35.1045 18.1875 36.3637 18.1875 37.917V66.1045C18.1875 67.6578 19.4467 68.917 21 68.917H49.1875C50.7409 68.917 52 67.6578 52 66.1045V37.917C52 36.3637 50.7409 35.1045 49.1875 35.1045Z" fill="#EEEEEE"/>
<g opacity="0.5">
<path opacity="0.5" d="M49.1875 35.1045H21C19.4467 35.1045 18.1875 36.3637 18.1875 37.917V66.1045C18.1875 67.6578 19.4467 68.917 21 68.917H49.1875C50.7409 68.917 52 67.6578 52 66.1045V37.917C52 36.3637 50.7409 35.1045 49.1875 35.1045Z" fill="url(#paint0_linear_1805_508)" style="mix-blend-mode:soft-light"/>
</g>
<path d="M29.7487 56.709C29.8097 57.0811 29.8445 57.4569 29.8529 57.834C29.8787 57.4632 29.9272 57.0944 29.9987 56.7298C30.0445 56.3577 30.1141 55.9888 30.207 55.6257L33.2487 42.8548H37.082L40.1445 55.3548C40.3158 56.1384 40.441 56.9315 40.5195 57.7298C40.5745 56.96 40.6789 56.1946 40.832 55.4382L43.2904 42.7715H46.7695L42.4779 61.0632H38.4779L35.5404 49.0215C35.5404 48.6673 35.3529 48.2298 35.2487 47.6673C35.1445 47.1048 35.082 46.6882 35.0612 46.4382C35.0612 46.7298 35.0612 47.1673 34.8737 47.7715C34.6862 48.3757 34.6862 48.7923 34.6445 49.0632L31.8945 61.1465H27.7279L23.3945 42.8548H26.9987L29.6654 55.6465C29.7162 55.9984 29.7439 56.3534 29.7487 56.709Z" fill="white"/>
</g>
<defs>
<filter id="filter0_d_1805_508" x="29.2305" y="21.958" width="58.748" height="68.1055" filterUnits="userSpaceOnUse" color-interpolation-filters="sRGB">
<feFlood flood-opacity="0" result="BackgroundImageFix"/>
<feColorMatrix in="SourceAlpha" type="matrix" values="0 0 0 0 0 0 0 0 0 0 0 0 0 0 0 0 0 0 127 0" result="hardAlpha"/>
<feOffset dy="4"/>
<feGaussianBlur stdDeviation="2"/>
<feComposite in2="hardAlpha" operator="out"/>
<feColorMatrix type="matrix" values="0 0 0 0 0 0 0 0 0 0 0 0 0 0 0 0 0 0 0.12 0"/>
<feBlend mode="normal" in2="BackgroundImageFix" result="effect1_dropShadow_1805_508"/>
<feBlend mode="normal" in="SourceGraphic" in2="effect1_dropShadow_1805_508" result="shape"/>
</filter>
<filter id="filter1_d_1805_508" x="18.1875" y="35.1045" width="41.8125" height="41.8125" filterUnits="userSpaceOnUse" color-interpolation-filters="sRGB">
<feFlood flood-opacity="0" result="BackgroundImageFix"/>
<feColorMatrix in="SourceAlpha" type="matrix" values="0 0 0 0 0 0 0 0 0 0 0 0 0 0 0 0 0 0 127 0" result="hardAlpha"/>
<feOffset dx="4" dy="4"/>
<feGaussianBlur stdDeviation="2"/>
<feComposite in2="hardAlpha" operator="out"/>
<feColorMatrix type="matrix" values="0 0 0 0 0 0 0 0 0 0 0 0 0 0 0 0 0 0 0.22 0"/>
<feBlend mode="normal" in2="BackgroundImageFix" result="effect1_dropShadow_1805_508"/>
<feBlend mode="normal" in="SourceGraphic" in2="effect1_dropShadow_1805_508" result="shape"/>
</filter>
<linearGradient id="paint0_linear_1805_508" x1="24.0625" y1="32.8962" x2="46.125" y2="71.1045" gradientUnits="userSpaceOnUse">
<stop stop-color="#9D9D9D" stop-opacity="0.5"/>
<stop offset="1"/>
</linearGradient>
</defs>
</svg>
