<svg width="104" height="104" viewBox="0 0 104 104" fill="none" xmlns="http://www.w3.org/2000/svg">
<rect x="2" y="2" width="100" height="100" rx="20" stroke="white" stroke-width="4"/>
<mask id="path-2-outside-1_1805_490" maskUnits="userSpaceOnUse" x="21" y="26" width="62" height="52" fill="black">
<rect fill="white" x="21" y="26" width="62" height="52"/>
<path d="M58.9992 63.641C54.9357 62.0565 50.6501 61.2774 46.142 61.304C40.8204 61.3356 35.6989 62.8615 31.3525 65.7076C30.4873 66.2733 29.562 65.1934 30.2172 64.4886C30.5873 64.0895 30.9191 63.6814 31.2125 63.2645C33.84 59.5281 35.3943 55.3146 35.8756 50.624C36.6909 42.6675 34.1234 35.0825 30.1889 28.1694C30.0272 27.8857 30.1838 27.3516 30.474 27.1625C30.7774 26.9647 31.087 26.9474 31.4026 27.1111C37.5567 30.3134 43.0511 34.2725 47.8859 38.9887C54.5845 45.5221 59.5294 53.5498 60.688 62.883C60.757 63.4348 60.5402 63.7698 60.0378 63.8881C59.7144 63.9645 59.3326 63.7704 58.9992 63.641ZM65.141 74.7904C66.1747 75.5617 67.135 75.4871 68.117 74.7722C69.2228 73.966 70.362 73.1378 71.5346 72.2875C72.5432 71.556 73.7453 71.2973 74.969 71.6273C75.4481 71.7578 76.0027 72.0552 76.6328 72.5197C77.7316 73.3319 78.8369 74.1353 79.9487 74.9297C80.3078 75.1851 80.6929 75.3156 81.1042 75.3212C81.6299 75.3289 81.9266 75.592 81.9945 76.1106C82.008 76.2048 81.9965 76.3009 81.9611 76.3894C81.8099 76.7763 81.526 76.9704 81.1091 76.9715C80.3623 76.9749 79.6814 76.7636 79.0669 76.338C77.8767 75.5121 76.7028 74.6632 75.5458 73.7919C74.6239 73.1002 73.6103 72.8614 72.6332 73.5647C71.4082 74.4452 70.1845 75.3275 68.9622 76.2118C67.9241 76.9627 66.7971 77.1755 65.5811 76.8505C65.0666 76.7122 64.4986 76.4108 63.8774 75.9464C62.736 75.094 61.6561 74.3111 60.638 73.5979C59.7578 72.9798 58.8691 72.9836 57.9723 73.6094C56.9886 74.2961 55.9567 75.0442 54.8763 75.8535C54.1739 76.3799 53.567 76.7122 53.0557 76.8505C51.8476 77.1788 50.7172 76.9665 49.6648 76.2134C48.5375 75.4072 47.4165 74.5923 46.302 73.7687C45.1468 72.9161 44.2498 72.956 43.1127 73.7786C41.9766 74.6013 40.8412 75.425 39.7067 76.2499C38.7142 76.9709 37.6005 77.1695 36.3658 76.8455C35.8523 76.7106 35.2855 76.4104 34.6652 75.9448C33.5927 75.1398 32.444 74.3099 31.2192 73.4552C30.524 72.9691 29.4786 73.0869 28.8201 73.5647C27.5463 74.4886 26.2675 75.4058 24.984 76.3164C24.346 76.7686 23.6014 76.9842 22.75 76.9632C22.4066 76.9555 22.1648 76.7431 22.0248 76.3263C22.0025 76.2607 21.9951 76.191 22.0031 76.1223C22.0554 75.6093 22.3404 75.341 22.8583 75.3178C23.3419 75.2968 23.7498 75.1658 24.082 74.9248C25.301 74.041 26.5214 73.1591 27.7432 72.2792C27.7732 72.257 27.7793 72.2294 27.7615 72.1963C27.221 71.2391 26.6753 70.2848 26.1244 69.3335C25.7709 68.7264 26.0828 68.0563 26.8079 68.0099C43.5382 66.9676 60.2682 65.921 76.998 64.87C77.2155 64.8557 77.4337 64.8547 77.6514 64.8668C78.1616 64.895 78.465 65.4688 78.3234 65.9299C78.2767 66.0837 78.1377 66.264 77.9065 66.4707C74.1788 69.8062 69.7857 72.4435 65.1543 74.6494C65.0731 74.6892 65.0688 74.7363 65.141 74.7904ZM28.2484 69.6287C28.2456 69.6295 28.243 69.631 28.2409 69.633C28.2387 69.6349 28.237 69.6373 28.2359 69.64C28.2348 69.6427 28.2343 69.6456 28.2344 69.6485C28.2345 69.6514 28.2353 69.6542 28.2367 69.6568L29.2836 71.4765C29.2979 71.5012 29.3195 71.5209 29.3454 71.533C29.3714 71.5452 29.4004 71.5491 29.4287 71.5443C30.4779 71.3686 31.4209 71.5693 32.2578 72.1465C33.3659 72.9096 34.5379 73.7548 35.7739 74.6825C36.7025 75.3792 37.6762 75.6247 38.6631 74.9297C39.6289 74.2496 40.7749 73.4209 42.1008 72.4435C43.2978 71.561 44.4882 71.2459 45.9253 71.6739C46.3376 71.7965 46.9061 72.1282 47.6308 72.6689C48.6105 73.3979 49.5986 74.1156 50.595 74.8218C51.6687 75.5832 52.5956 75.4704 53.6292 74.6942C54.7842 73.8253 55.9558 72.9786 57.1437 72.1548C58.6275 71.1247 60.4296 71.3338 61.8617 72.4052C62.3695 72.7861 62.883 73.1594 63.4022 73.5248C63.4513 73.5604 63.5175 73.5671 63.5744 73.5418C67.6964 71.6684 71.4762 69.4264 74.9139 66.8156C75.0596 66.705 75.0412 66.6559 74.859 66.668C59.3488 67.6399 43.9507 68.6037 28.6651 69.5591C28.5242 69.5683 28.3846 69.5916 28.2484 69.6287ZM63.7122 61.8878C61.7701 54.3394 58.4073 47.0977 53.5659 41.1896C51.4842 38.6498 49.2324 36.5437 46.8106 34.8719C46.202 34.4523 46.5421 33.4223 47.2857 33.4256C47.4757 33.4256 47.6824 33.4759 47.9059 33.5765C58.8458 38.4861 66.7316 47.8574 71.2563 58.8111C71.7578 60.0254 72.2001 61.263 72.5817 62.5197C72.82 63.301 72.0881 64.0093 71.3562 63.5464C69.4723 62.3572 66.9632 62.2693 64.6075 62.5645C64.1674 62.6193 63.8156 62.2926 63.7122 61.8878ZM65.2427 60.838C66.9266 60.672 68.6988 60.7815 70.3342 61.2609C70.3424 61.2631 70.351 61.2631 70.3592 61.2608C70.3673 61.2584 70.3747 61.254 70.3805 61.2479C70.3863 61.2417 70.3903 61.2341 70.3922 61.2259C70.394 61.2177 70.3935 61.2091 70.3908 61.2011C67.1282 52.3921 61.5567 44.3875 53.9026 38.9107C53.7638 38.8122 53.7504 38.8272 53.8627 38.9555C59.301 45.1721 63.0071 52.7753 65.1393 60.7666C65.1538 60.8196 65.1882 60.8434 65.2427 60.838ZM36.304 38.1162C38.6831 46.285 38.0829 54.9896 33.8016 62.359C33.7987 62.3636 33.7975 62.3691 33.798 62.3746C33.7986 62.3801 33.801 62.3852 33.8048 62.3892C33.8086 62.3932 33.8137 62.3958 33.8192 62.3966C33.8246 62.3974 33.8302 62.3964 33.835 62.3937C37.7484 60.588 41.8785 59.6718 46.2253 59.6454C50.52 59.6188 54.7035 60.3265 58.7758 61.7684C58.7841 61.7714 58.7929 61.7722 58.8016 61.7707C58.8102 61.7692 58.8183 61.7656 58.825 61.76C58.8317 61.7544 58.8369 61.7472 58.84 61.7391C58.8431 61.7309 58.8439 61.7221 58.8425 61.7135C57.2087 51.4765 50.3833 42.8615 42.5293 36.4326C39.6195 34.0498 36.4992 31.8929 33.1681 29.9624C33.0603 29.8993 33.0353 29.9235 33.0931 30.0353C34.3958 32.5465 35.466 35.2402 36.304 38.1162Z"/>
</mask>
<path d="M58.9992 63.641C54.9357 62.0565 50.6501 61.2774 46.142 61.304C40.8204 61.3356 35.6989 62.8615 31.3525 65.7076C30.4873 66.2733 29.562 65.1934 30.2172 64.4886C30.5873 64.0895 30.9191 63.6814 31.2125 63.2645C33.84 59.5281 35.3943 55.3146 35.8756 50.624C36.6909 42.6675 34.1234 35.0825 30.1889 28.1694C30.0272 27.8857 30.1838 27.3516 30.474 27.1625C30.7774 26.9647 31.087 26.9474 31.4026 27.1111C37.5567 30.3134 43.0511 34.2725 47.8859 38.9887C54.5845 45.5221 59.5294 53.5498 60.688 62.883C60.757 63.4348 60.5402 63.7698 60.0378 63.8881C59.7144 63.9645 59.3326 63.7704 58.9992 63.641ZM65.141 74.7904C66.1747 75.5617 67.135 75.4871 68.117 74.7722C69.2228 73.966 70.362 73.1378 71.5346 72.2875C72.5432 71.556 73.7453 71.2973 74.969 71.6273C75.4481 71.7578 76.0027 72.0552 76.6328 72.5197C77.7316 73.3319 78.8369 74.1353 79.9487 74.9297C80.3078 75.1851 80.6929 75.3156 81.1042 75.3212C81.6299 75.3289 81.9266 75.592 81.9945 76.1106C82.008 76.2048 81.9965 76.3009 81.9611 76.3894C81.8099 76.7763 81.526 76.9704 81.1091 76.9715C80.3623 76.9749 79.6814 76.7636 79.0669 76.338C77.8767 75.5121 76.7028 74.6632 75.5458 73.7919C74.6239 73.1002 73.6103 72.8614 72.6332 73.5647C71.4082 74.4452 70.1845 75.3275 68.9622 76.2118C67.9241 76.9627 66.7971 77.1755 65.5811 76.8505C65.0666 76.7122 64.4986 76.4108 63.8774 75.9464C62.736 75.094 61.6561 74.3111 60.638 73.5979C59.7578 72.9798 58.8691 72.9836 57.9723 73.6094C56.9886 74.2961 55.9567 75.0442 54.8763 75.8535C54.1739 76.3799 53.567 76.7122 53.0557 76.8505C51.8476 77.1788 50.7172 76.9665 49.6648 76.2134C48.5375 75.4072 47.4165 74.5923 46.302 73.7687C45.1468 72.9161 44.2498 72.956 43.1127 73.7786C41.9766 74.6013 40.8412 75.425 39.7067 76.2499C38.7142 76.9709 37.6005 77.1695 36.3658 76.8455C35.8523 76.7106 35.2855 76.4104 34.6652 75.9448C33.5927 75.1398 32.444 74.3099 31.2192 73.4552C30.524 72.9691 29.4786 73.0869 28.8201 73.5647C27.5463 74.4886 26.2675 75.4058 24.984 76.3164C24.346 76.7686 23.6014 76.9842 22.75 76.9632C22.4066 76.9555 22.1648 76.7431 22.0248 76.3263C22.0025 76.2607 21.9951 76.191 22.0031 76.1223C22.0554 75.6093 22.3404 75.341 22.8583 75.3178C23.3419 75.2968 23.7498 75.1658 24.082 74.9248C25.301 74.041 26.5214 73.1591 27.7432 72.2792C27.7732 72.257 27.7793 72.2294 27.7615 72.1963C27.221 71.2391 26.6753 70.2848 26.1244 69.3335C25.7709 68.7264 26.0828 68.0563 26.8079 68.0099C43.5382 66.9676 60.2682 65.921 76.998 64.87C77.2155 64.8557 77.4337 64.8547 77.6514 64.8668C78.1616 64.895 78.465 65.4688 78.3234 65.9299C78.2767 66.0837 78.1377 66.264 77.9065 66.4707C74.1788 69.8062 69.7857 72.4435 65.1543 74.6494C65.0731 74.6892 65.0688 74.7363 65.141 74.7904ZM28.2484 69.6287C28.2456 69.6295 28.243 69.631 28.2409 69.633C28.2387 69.6349 28.237 69.6373 28.2359 69.64C28.2348 69.6427 28.2343 69.6456 28.2344 69.6485C28.2345 69.6514 28.2353 69.6542 28.2367 69.6568L29.2836 71.4765C29.2979 71.5012 29.3195 71.5209 29.3454 71.533C29.3714 71.5452 29.4004 71.5491 29.4287 71.5443C30.4779 71.3686 31.4209 71.5693 32.2578 72.1465C33.3659 72.9096 34.5379 73.7548 35.7739 74.6825C36.7025 75.3792 37.6762 75.6247 38.6631 74.9297C39.6289 74.2496 40.7749 73.4209 42.1008 72.4435C43.2978 71.561 44.4882 71.2459 45.9253 71.6739C46.3376 71.7965 46.9061 72.1282 47.6308 72.6689C48.6105 73.3979 49.5986 74.1156 50.595 74.8218C51.6687 75.5832 52.5956 75.4704 53.6292 74.6942C54.7842 73.8253 55.9558 72.9786 57.1437 72.1548C58.6275 71.1247 60.4296 71.3338 61.8617 72.4052C62.3695 72.7861 62.883 73.1594 63.4022 73.5248C63.4513 73.5604 63.5175 73.5671 63.5744 73.5418C67.6964 71.6684 71.4762 69.4264 74.9139 66.8156C75.0596 66.705 75.0412 66.6559 74.859 66.668C59.3488 67.6399 43.9507 68.6037 28.6651 69.5591C28.5242 69.5683 28.3846 69.5916 28.2484 69.6287ZM63.7122 61.8878C61.7701 54.3394 58.4073 47.0977 53.5659 41.1896C51.4842 38.6498 49.2324 36.5437 46.8106 34.8719C46.202 34.4523 46.5421 33.4223 47.2857 33.4256C47.4757 33.4256 47.6824 33.4759 47.9059 33.5765C58.8458 38.4861 66.7316 47.8574 71.2563 58.8111C71.7578 60.0254 72.2001 61.263 72.5817 62.5197C72.82 63.301 72.0881 64.0093 71.3562 63.5464C69.4723 62.3572 66.9632 62.2693 64.6075 62.5645C64.1674 62.6193 63.8156 62.2926 63.7122 61.8878ZM65.2427 60.838C66.9266 60.672 68.6988 60.7815 70.3342 61.2609C70.3424 61.2631 70.351 61.2631 70.3592 61.2608C70.3673 61.2584 70.3747 61.254 70.3805 61.2479C70.3863 61.2417 70.3903 61.2341 70.3922 61.2259C70.394 61.2177 70.3935 61.2091 70.3908 61.2011C67.1282 52.3921 61.5567 44.3875 53.9026 38.9107C53.7638 38.8122 53.7504 38.8272 53.8627 38.9555C59.301 45.1721 63.0071 52.7753 65.1393 60.7666C65.1538 60.8196 65.1882 60.8434 65.2427 60.838ZM36.304 38.1162C38.6831 46.285 38.0829 54.9896 33.8016 62.359C33.7987 62.3636 33.7975 62.3691 33.798 62.3746C33.7986 62.3801 33.801 62.3852 33.8048 62.3892C33.8086 62.3932 33.8137 62.3958 33.8192 62.3966C33.8246 62.3974 33.8302 62.3964 33.835 62.3937C37.7484 60.588 41.8785 59.6718 46.2253 59.6454C50.52 59.6188 54.7035 60.3265 58.7758 61.7684C58.7841 61.7714 58.7929 61.7722 58.8016 61.7707C58.8102 61.7692 58.8183 61.7656 58.825 61.76C58.8317 61.7544 58.8369 61.7472 58.84 61.7391C58.8431 61.7309 58.8439 61.7221 58.8425 61.7135C57.2087 51.4765 50.3833 42.8615 42.5293 36.4326C39.6195 34.0498 36.4992 31.8929 33.1681 29.9624C33.0603 29.8993 33.0353 29.9235 33.0931 30.0353C34.3958 32.5465 35.466 35.2402 36.304 38.1162Z" fill="white"/>
<path d="M58.9992 63.641C54.9357 62.0565 50.6501 61.2774 46.142 61.304C40.8204 61.3356 35.6989 62.8615 31.3525 65.7076C30.4873 66.2733 29.562 65.1934 30.2172 64.4886C30.5873 64.0895 30.9191 63.6814 31.2125 63.2645C33.84 59.5281 35.3943 55.3146 35.8756 50.624C36.6909 42.6675 34.1234 35.0825 30.1889 28.1694C30.0272 27.8857 30.1838 27.3516 30.474 27.1625C30.7774 26.9647 31.087 26.9474 31.4026 27.1111C37.5567 30.3134 43.0511 34.2725 47.8859 38.9887C54.5845 45.5221 59.5294 53.5498 60.688 62.883C60.757 63.4348 60.5402 63.7698 60.0378 63.8881C59.7144 63.9645 59.3326 63.7704 58.9992 63.641ZM65.141 74.7904C66.1747 75.5617 67.135 75.4871 68.117 74.7722C69.2228 73.966 70.362 73.1378 71.5346 72.2875C72.5432 71.556 73.7453 71.2973 74.969 71.6273C75.4481 71.7578 76.0027 72.0552 76.6328 72.5197C77.7316 73.3319 78.8369 74.1353 79.9487 74.9297C80.3078 75.1851 80.6929 75.3156 81.1042 75.3212C81.6299 75.3289 81.9266 75.592 81.9945 76.1106C82.008 76.2048 81.9965 76.3009 81.9611 76.3894C81.8099 76.7763 81.526 76.9704 81.1091 76.9715C80.3623 76.9749 79.6814 76.7636 79.0669 76.338C77.8767 75.5121 76.7028 74.6632 75.5458 73.7919C74.6239 73.1002 73.6103 72.8614 72.6332 73.5647C71.4082 74.4452 70.1845 75.3275 68.9622 76.2118C67.9241 76.9627 66.7971 77.1755 65.5811 76.8505C65.0666 76.7122 64.4986 76.4108 63.8774 75.9464C62.736 75.094 61.6561 74.3111 60.638 73.5979C59.7578 72.9798 58.8691 72.9836 57.9723 73.6094C56.9886 74.2961 55.9567 75.0442 54.8763 75.8535C54.1739 76.3799 53.567 76.7122 53.0557 76.8505C51.8476 77.1788 50.7172 76.9665 49.6648 76.2134C48.5375 75.4072 47.4165 74.5923 46.302 73.7687C45.1468 72.9161 44.2498 72.956 43.1127 73.7786C41.9766 74.6013 40.8412 75.425 39.7067 76.2499C38.7142 76.9709 37.6005 77.1695 36.3658 76.8455C35.8523 76.7106 35.2855 76.4104 34.6652 75.9448C33.5927 75.1398 32.444 74.3099 31.2192 73.4552C30.524 72.9691 29.4786 73.0869 28.8201 73.5647C27.5463 74.4886 26.2675 75.4058 24.984 76.3164C24.346 76.7686 23.6014 76.9842 22.75 76.9632C22.4066 76.9555 22.1648 76.7431 22.0248 76.3263C22.0025 76.2607 21.9951 76.191 22.0031 76.1223C22.0554 75.6093 22.3404 75.341 22.8583 75.3178C23.3419 75.2968 23.7498 75.1658 24.082 74.9248C25.301 74.041 26.5214 73.1591 27.7432 72.2792C27.7732 72.257 27.7793 72.2294 27.7615 72.1963C27.221 71.2391 26.6753 70.2848 26.1244 69.3335C25.7709 68.7264 26.0828 68.0563 26.8079 68.0099C43.5382 66.9676 60.2682 65.921 76.998 64.87C77.2155 64.8557 77.4337 64.8547 77.6514 64.8668C78.1616 64.895 78.465 65.4688 78.3234 65.9299C78.2767 66.0837 78.1377 66.264 77.9065 66.4707C74.1788 69.8062 69.7857 72.4435 65.1543 74.6494C65.0731 74.6892 65.0688 74.7363 65.141 74.7904ZM28.2484 69.6287C28.2456 69.6295 28.243 69.631 28.2409 69.633C28.2387 69.6349 28.237 69.6373 28.2359 69.64C28.2348 69.6427 28.2343 69.6456 28.2344 69.6485C28.2345 69.6514 28.2353 69.6542 28.2367 69.6568L29.2836 71.4765C29.2979 71.5012 29.3195 71.5209 29.3454 71.533C29.3714 71.5452 29.4004 71.5491 29.4287 71.5443C30.4779 71.3686 31.4209 71.5693 32.2578 72.1465C33.3659 72.9096 34.5379 73.7548 35.7739 74.6825C36.7025 75.3792 37.6762 75.6247 38.6631 74.9297C39.6289 74.2496 40.7749 73.4209 42.1008 72.4435C43.2978 71.561 44.4882 71.2459 45.9253 71.6739C46.3376 71.7965 46.9061 72.1282 47.6308 72.6689C48.6105 73.3979 49.5986 74.1156 50.595 74.8218C51.6687 75.5832 52.5956 75.4704 53.6292 74.6942C54.7842 73.8253 55.9558 72.9786 57.1437 72.1548C58.6275 71.1247 60.4296 71.3338 61.8617 72.4052C62.3695 72.7861 62.883 73.1594 63.4022 73.5248C63.4513 73.5604 63.5175 73.5671 63.5744 73.5418C67.6964 71.6684 71.4762 69.4264 74.9139 66.8156C75.0596 66.705 75.0412 66.6559 74.859 66.668C59.3488 67.6399 43.9507 68.6037 28.6651 69.5591C28.5242 69.5683 28.3846 69.5916 28.2484 69.6287ZM63.7122 61.8878C61.7701 54.3394 58.4073 47.0977 53.5659 41.1896C51.4842 38.6498 49.2324 36.5437 46.8106 34.8719C46.202 34.4523 46.5421 33.4223 47.2857 33.4256C47.4757 33.4256 47.6824 33.4759 47.9059 33.5765C58.8458 38.4861 66.7316 47.8574 71.2563 58.8111C71.7578 60.0254 72.2001 61.263 72.5817 62.5197C72.82 63.301 72.0881 64.0093 71.3562 63.5464C69.4723 62.3572 66.9632 62.2693 64.6075 62.5645C64.1674 62.6193 63.8156 62.2926 63.7122 61.8878ZM65.2427 60.838C66.9266 60.672 68.6988 60.7815 70.3342 61.2609C70.3424 61.2631 70.351 61.2631 70.3592 61.2608C70.3673 61.2584 70.3747 61.254 70.3805 61.2479C70.3863 61.2417 70.3903 61.2341 70.3922 61.2259C70.394 61.2177 70.3935 61.2091 70.3908 61.2011C67.1282 52.3921 61.5567 44.3875 53.9026 38.9107C53.7638 38.8122 53.7504 38.8272 53.8627 38.9555C59.301 45.1721 63.0071 52.7753 65.1393 60.7666C65.1538 60.8196 65.1882 60.8434 65.2427 60.838ZM36.304 38.1162C38.6831 46.285 38.0829 54.9896 33.8016 62.359C33.7987 62.3636 33.7975 62.3691 33.798 62.3746C33.7986 62.3801 33.801 62.3852 33.8048 62.3892C33.8086 62.3932 33.8137 62.3958 33.8192 62.3966C33.8246 62.3974 33.8302 62.3964 33.835 62.3937C37.7484 60.588 41.8785 59.6718 46.2253 59.6454C50.52 59.6188 54.7035 60.3265 58.7758 61.7684C58.7841 61.7714 58.7929 61.7722 58.8016 61.7707C58.8102 61.7692 58.8183 61.7656 58.825 61.76C58.8317 61.7544 58.8369 61.7472 58.84 61.7391C58.8431 61.7309 58.8439 61.7221 58.8425 61.7135C57.2087 51.4765 50.3833 42.8615 42.5293 36.4326C39.6195 34.0498 36.4992 31.8929 33.1681 29.9624C33.0603 29.8993 33.0353 29.9235 33.0931 30.0353C34.3958 32.5465 35.466 35.2402 36.304 38.1162Z" stroke="white" stroke-width="2" mask="url(#path-2-outside-1_1805_490)"/>
</svg>
