<svg width="104" height="104" viewBox="0 0 104 104" fill="none" xmlns="http://www.w3.org/2000/svg">
<g clip-path="url(#clip0_1805_470)">
<path d="M26.4776 43.2238L27.4615 54.2039H52.0328V43.2238H26.4776ZM24.5 21L25.4981 31.9801H52.0328V21H24.5V21ZM52.0328 71.7403L51.9847 71.753L39.7563 68.4511L38.9745 59.6941H27.9521L29.4903 76.9345L51.9823 83.178L52.0328 83.1642V71.7403Z" fill="#E9E9E9"/>
<path d="M77.5194 43.2238L79.5014 21H51.9964V31.9801H67.4683L66.4692 43.2238H51.9964V54.2039H65.5172L64.2424 68.4443L51.9961 71.7496V83.1728L74.506 76.9345L74.671 75.0793L77.2516 46.1723L77.5194 43.2238V43.2238Z" fill="white"/>
</g>
<rect x="2" y="2" width="100" height="100" rx="20" stroke="white" stroke-width="4"/>
<defs>
<clipPath id="clip0_1805_470">
<rect x="2" y="2" width="100" height="100" rx="20" fill="white"/>
</clipPath>
</defs>
</svg>
