<svg width="100" height="100" viewBox="0 0 100 100" fill="none" xmlns="http://www.w3.org/2000/svg">
<path d="M17.5 2H82.5C91.0604 2 98 8.93959 98 17.5V82.5C98 91.0604 91.0604 98 82.5 98H17.5C8.93959 98 2 91.0604 2 82.5V17.5C2 8.93959 8.93959 2 17.5 2Z" stroke="white" stroke-width="4"/>
<path d="M50.8304 61.0596H35.7838L32.0222 72.478C31.9789 72.826 31.7411 73 31.3088 73H24.4989C24.0665 73 23.9152 72.7825 24.0449 72.3475L37.5349 33.5901C37.8376 32.9376 38.0321 31.7196 38.1186 29.9362C38.1186 29.6752 38.2699 29.5447 38.5726 29.5447H47.9118C48.128 29.5447 48.301 29.6534 48.4307 29.8709L63.4773 72.4128C63.607 72.8043 63.4773 73 63.0881 73H55.4351C55.1325 73 54.9163 72.8478 54.7866 72.5433L50.8304 61.0596ZM37.4701 54.7305H49.1441C48.9712 54.1215 48.0632 51.3593 46.4202 46.444C44.8204 41.4851 43.7611 38.0922 43.2422 36.2652H43.1774C42.6585 38.4837 40.7561 44.6388 37.4701 54.7305Z" fill="white"/>
<path d="M67.5039 72.4128V41.7461C67.5039 41.3981 67.6768 41.2241 68.0227 41.2241H75.2217C75.5676 41.2241 75.7406 41.3981 75.7406 41.7461V72.478C75.7406 72.826 75.5676 73 75.2217 73H68.0876C67.6985 73 67.5039 72.8043 67.5039 72.4128ZM74.8326 34.634C74.0543 35.417 72.995 35.8085 71.6547 35.8085C70.3143 35.8085 69.255 35.417 68.4767 34.634C67.6985 33.8511 67.3093 32.7853 67.3093 31.4369C67.3093 30.1319 67.7201 29.0662 68.5416 28.2397C69.3631 27.4132 70.4224 27 71.7195 27C73.0166 27 74.0543 27.4132 74.8326 28.2397C75.6109 29.0662 76 30.1319 76 31.4369C76 32.7853 75.6109 33.8511 74.8326 34.634Z" fill="white"/>
</svg>
