<svg width="104" height="104" viewBox="0 0 104 104" fill="none" xmlns="http://www.w3.org/2000/svg">
<rect x="2" y="2" width="100" height="100" rx="20" stroke="white" stroke-width="4"/>
<g filter="url(#filter0_d_1805_509)">
<g style="mix-blend-mode:multiply" opacity="0.2">
<g style="mix-blend-mode:multiply" opacity="0.2">
<path d="M81.1263 21.958H36.043C34.4896 21.958 33.2305 23.2173 33.2305 24.7706V79.2498C33.2305 80.8029 34.4896 82.0623 36.043 82.0623H81.1263C82.6796 82.0623 83.9388 80.8029 83.9388 79.2498V24.7706C83.9388 23.2173 82.6796 21.958 81.1263 21.958Z" fill="white"/>
</g>
</g>
<g style="mix-blend-mode:multiply" opacity="0.12">
<g style="mix-blend-mode:multiply" opacity="0.12">
<path d="M81.1263 21.959H36.043C34.4896 21.959 33.2305 23.2182 33.2305 24.7715V79.2507C33.2305 80.804 34.4896 82.0632 36.043 82.0632H81.1263C82.6796 82.0632 83.9388 80.804 83.9388 79.2507V24.7715C83.9388 23.2182 82.6796 21.959 81.1263 21.959Z" fill="white"/>
</g>
</g>
<path d="M59.5209 21.959H36.0417C35.6734 21.959 35.3086 22.0319 34.9686 22.1735C34.6284 22.315 34.3199 22.5225 34.0603 22.784C33.8007 23.0455 33.5955 23.3557 33.4565 23.6967C33.3174 24.038 33.2474 24.4032 33.2501 24.7715V36.9798H59.5209V21.959Z" fill="#F1F1F1"/>
<path d="M81.1673 21.959H59.5215V36.9798H83.9173V24.7715C83.9229 24.0346 83.6369 23.3255 83.1217 22.7986C82.6067 22.2718 81.904 21.97 81.1673 21.959Z" fill="white"/>
<path d="M83.9382 52H59.5215V67.0208H83.9382V52Z" fill="#E1E1E1"/>
<path d="M59.5209 67.0208V52H33.2501V79.2292C33.2472 79.5994 33.3182 79.9662 33.4584 80.3087C33.5988 80.6512 33.8059 80.9623 34.0676 81.2242C34.3293 81.4858 34.6405 81.6929 34.983 81.8331C35.3255 81.9735 35.6924 82.0444 36.0626 82.0417H81.1668C81.5368 82.0444 81.9038 81.9735 82.2463 81.8331C82.5888 81.6929 82.8999 81.4858 83.1615 81.2242C83.4234 80.9623 83.6305 80.6512 83.7707 80.3087C83.9111 79.9662 83.982 79.5994 83.9793 79.2292V67.0208H59.5209Z" fill="#BFBFBF"/>
<path d="M59.5221 36.9795H33.2305V52.0003H59.5221V36.9795Z" fill="#E1E1E1"/>
<path d="M83.9382 36.9795H59.5215V52.0003H83.9382V36.9795Z" fill="#F1F1F1"/>
</g>
<g style="mix-blend-mode:multiply" opacity="0.48">
<g style="mix-blend-mode:multiply" opacity="0.48">
<path d="M49.1875 35.1045H21C19.4467 35.1045 18.1875 36.3637 18.1875 37.917V66.1045C18.1875 67.6578 19.4467 68.917 21 68.917H49.1875C50.7408 68.917 52 67.6578 52 66.1045V37.917C52 36.3637 50.7408 35.1045 49.1875 35.1045Z" fill="black"/>
</g>
</g>
<g style="mix-blend-mode:multiply" opacity="0.24">
<g style="mix-blend-mode:multiply" opacity="0.24">
<path d="M49.1876 35.1045H21C19.4467 35.1045 18.1875 36.3637 18.1875 37.917V66.1045C18.1875 67.6576 19.4467 68.917 21 68.917H49.1876C50.7407 68.917 52.0001 67.6576 52.0001 66.1045V37.917C52.0001 36.3637 50.7407 35.1045 49.1876 35.1045Z" fill="black"/>
</g>
</g>
<g filter="url(#filter1_d_1805_509)">
<path d="M49.1875 35.1045H21C19.4467 35.1045 18.1875 36.3637 18.1875 37.917V66.1045C18.1875 67.6578 19.4467 68.917 21 68.917H49.1875C50.7408 68.917 52 67.6578 52 66.1045V37.917C52 36.3637 50.7408 35.1045 49.1875 35.1045Z" fill="#B5B5B5"/>
<path opacity="0.5" d="M49.1875 35.1045H21C19.4467 35.1045 18.1875 36.3637 18.1875 37.917V66.1045C18.1875 67.6578 19.4467 68.917 21 68.917H49.1875C50.7408 68.917 52 67.6578 52 66.1045V37.917C52 36.3637 50.7408 35.1045 49.1875 35.1045Z" fill="url(#paint0_linear_1805_509)" style="mix-blend-mode:soft-light"/>
<path d="M27 61.1462L32.8542 52.0003L27.4167 42.8545H31.7917L34.75 48.6878C35.0208 49.2295 35.2083 49.6462 35.3125 49.917C35.5 49.4795 35.7083 49.042 35.9167 48.6253L39.0833 42.8545H43.1042L37.5625 52.0003L43.2708 61.2295H39.1042L35.6667 54.8337C35.5104 54.5607 35.3781 54.2751 35.2708 53.9795C35.1713 54.2716 35.0385 54.5512 34.875 54.8128L31.1667 61.1462H27Z" fill="white"/>
</g>
<defs>
<filter id="filter0_d_1805_509" x="29.2305" y="21.958" width="58.748" height="68.1055" filterUnits="userSpaceOnUse" color-interpolation-filters="sRGB">
<feFlood flood-opacity="0" result="BackgroundImageFix"/>
<feColorMatrix in="SourceAlpha" type="matrix" values="0 0 0 0 0 0 0 0 0 0 0 0 0 0 0 0 0 0 127 0" result="hardAlpha"/>
<feOffset dy="4"/>
<feGaussianBlur stdDeviation="2"/>
<feComposite in2="hardAlpha" operator="out"/>
<feColorMatrix type="matrix" values="0 0 0 0 0 0 0 0 0 0 0 0 0 0 0 0 0 0 0.12 0"/>
<feBlend mode="normal" in2="BackgroundImageFix" result="effect1_dropShadow_1805_509"/>
<feBlend mode="normal" in="SourceGraphic" in2="effect1_dropShadow_1805_509" result="shape"/>
</filter>
<filter id="filter1_d_1805_509" x="18.1875" y="35.1045" width="41.8125" height="41.8125" filterUnits="userSpaceOnUse" color-interpolation-filters="sRGB">
<feFlood flood-opacity="0" result="BackgroundImageFix"/>
<feColorMatrix in="SourceAlpha" type="matrix" values="0 0 0 0 0 0 0 0 0 0 0 0 0 0 0 0 0 0 127 0" result="hardAlpha"/>
<feOffset dx="4" dy="4"/>
<feGaussianBlur stdDeviation="2"/>
<feComposite in2="hardAlpha" operator="out"/>
<feColorMatrix type="matrix" values="0 0 0 0 0 0 0 0 0 0 0 0 0 0 0 0 0 0 0.22 0"/>
<feBlend mode="normal" in2="BackgroundImageFix" result="effect1_dropShadow_1805_509"/>
<feBlend mode="normal" in="SourceGraphic" in2="effect1_dropShadow_1805_509" result="shape"/>
</filter>
<linearGradient id="paint0_linear_1805_509" x1="24.0625" y1="32.8962" x2="46.125" y2="71.1045" gradientUnits="userSpaceOnUse">
<stop stop-color="white" stop-opacity="0.5"/>
<stop offset="1" stop-opacity="0.7"/>
</linearGradient>
</defs>
</svg>
