<svg width="104" height="104" viewBox="0 0 104 104" fill="none" xmlns="http://www.w3.org/2000/svg">
<path d="M19.7083 2.00001H84.2917C86.6178 1.99776 88.9215 2.46601 91.0709 3.37796C93.2204 4.28991 95.1734 5.62765 96.8182 7.31463C98.463 9.00162 99.7674 11.0047 100.657 13.2093C101.546 15.4139 102.002 17.7766 102 20.1624V83.8376C102.002 86.2234 101.546 88.5861 100.657 90.7907C99.7674 92.9953 98.463 94.9984 96.8182 96.6854C95.1734 98.3723 93.2204 99.7101 91.0709 100.622C88.9215 101.534 86.6178 102.002 84.2917 102H19.7083C17.3822 102.002 15.0785 101.534 12.9291 100.622C10.7796 99.7101 8.82658 98.3723 7.18177 96.6854C5.53696 94.9984 4.23266 92.9953 3.34351 90.7907C2.45436 88.5861 1.99782 86.2234 2.00001 83.8376V20.1624C1.99782 17.7766 2.45436 15.4139 3.34351 13.2093C4.23266 11.0047 5.53696 9.00162 7.18177 7.31463C8.82658 5.62765 10.7796 4.28991 12.9291 3.37796C15.0785 2.46601 17.3822 1.99776 19.7083 2.00001Z" stroke="white" stroke-width="4"/>
<path d="M81.8499 49.3276L55.2151 23.1316C53.6826 21.6228 51.195 21.6228 49.6606 23.1316L44.1302 28.5721L51.1453 35.4725C52.7762 34.9309 54.6455 35.2941 55.9448 36.5724C57.251 37.8588 57.6175 39.7132 57.0531 41.3227L63.8144 47.9735C65.4502 47.4191 67.3375 47.7773 68.6437 49.0644C70.4698 50.8601 70.4698 53.7699 68.6437 55.5661C66.8173 57.3629 63.8591 57.3629 62.0317 55.5661C60.6586 54.2144 60.319 52.2299 61.0145 50.5658L54.7088 44.3632L54.7082 60.6852C55.1534 60.902 55.5736 61.1914 55.9446 61.5547C57.7702 63.3502 57.7702 66.2595 55.9446 68.058C54.1185 69.8535 51.1589 69.8535 49.3347 68.058C47.5089 66.2597 47.5089 63.3504 49.3347 61.5547C49.786 61.1117 50.3081 60.7763 50.8652 60.5515V44.0778C50.3078 43.854 49.7863 43.5211 49.3344 43.0745C47.9514 41.7152 47.6183 39.7186 48.3276 38.048L41.412 31.2445L23.1508 49.2066C21.6164 50.7165 21.6164 53.1634 23.1508 54.6724L49.784 80.8684C51.3173 82.3772 53.804 82.3772 55.3395 80.8684L81.8496 54.7961C83.3835 53.2866 83.3835 50.8389 81.8496 49.3298" fill="white"/>
</svg>
