<svg width="169" height="190" viewBox="0 0 169 190" fill="none" xmlns="http://www.w3.org/2000/svg">
<path d="M169 50.1685C169 57.2846 167.997 64.2228 165.991 70.9831C164.821 74.3633 163.317 77.6545 161.478 80.8567C159.806 84.059 158.051 87.2612 156.212 90.4635C150.863 99.3586 145.263 108.165 139.412 116.882C133.729 125.421 127.878 133.872 121.861 142.233C116.01 150.417 109.992 158.6 103.807 166.784C97.7893 174.789 91.3536 182.528 84.5 190C60.7631 161.536 39.2829 131.47 20.0593 99.8034C17.2176 95.1779 14.3759 90.5524 11.5341 85.927C8.85955 81.3015 6.51929 76.4981 4.51336 71.5168C3.17607 68.1367 2.08952 64.6676 1.25371 61.1095C0.417905 57.5515 0 53.9045 0 50.1685C0 41.0955 2.00594 32.823 6.01781 25.3511C10.0297 17.7013 15.4624 11.5637 22.316 6.93819C29.1696 2.31273 36.859 0 45.3843 0C53.5752 0 61.0974 2.22378 67.951 6.67134C74.9718 10.941 80.4881 16.9007 84.5 24.5506C88.3447 16.9007 93.7775 10.941 100.798 6.67134C107.819 2.22378 115.425 0 123.616 0C132.308 0 139.998 2.31273 146.684 6.93819C153.538 11.5637 158.97 17.7013 162.982 25.3511C166.994 32.823 169 41.0955 169 50.1685Z" fill="#D9F205"/>
<path d="M27.7408 65.42C25.8208 65.42 24.0008 65.26 22.2808 64.94C20.5808 64.6 19.2708 64.22 18.3508 63.8V57.86H24.9508C24.9508 58.48 25.0908 58.93 25.3708 59.21C25.6508 59.49 26.1608 59.63 26.9008 59.63C27.5208 59.63 27.9608 59.54 28.2208 59.36C28.5008 59.16 28.6408 58.87 28.6408 58.49C28.6408 58.17 28.5108 57.9 28.2508 57.68C27.9908 57.44 27.5408 57.2 26.9008 56.96L24.3208 56.06C22.1008 55.22 20.5008 54.23 19.5208 53.09C18.5608 51.95 18.0808 50.41 18.0808 48.47C18.0808 46.11 18.8508 44.32 20.3908 43.1C21.9508 41.86 24.5408 41.24 28.1608 41.24C29.9008 41.24 31.5308 41.42 33.0508 41.78C34.5908 42.12 35.8308 42.58 36.7708 43.16V48.53H30.7708C30.7708 47.53 30.1508 47.03 28.9108 47.03C28.3108 47.03 27.8808 47.11 27.6208 47.27C27.3808 47.41 27.2608 47.67 27.2608 48.05C27.2608 48.39 27.4008 48.66 27.6808 48.86C27.9808 49.06 28.4608 49.27 29.1208 49.49L31.7308 50.39C33.8508 51.11 35.3908 52.05 36.3508 53.21C37.3308 54.35 37.8208 55.85 37.8208 57.71C37.8208 60.25 36.9608 62.17 35.2408 63.47C33.5408 64.77 31.0408 65.42 27.7408 65.42ZM51.1957 65.42C47.4157 65.42 44.4957 64.46 42.4357 62.54C40.3957 60.62 39.3757 57.55 39.3757 53.33C39.3757 45.27 43.2957 41.24 51.1357 41.24C53.0357 41.24 54.7957 41.47 56.4157 41.93C58.0557 42.39 59.2757 42.9 60.0757 43.46V50.96H52.8757V48.8C52.8757 48.04 52.7057 47.48 52.3657 47.12C52.0257 46.76 51.5157 46.58 50.8357 46.58C50.1557 46.58 49.6457 46.76 49.3057 47.12C48.9657 47.48 48.7957 48.04 48.7957 48.8V57.86C48.7957 58.62 48.9657 59.18 49.3057 59.54C49.6457 59.9 50.1557 60.08 50.8357 60.08C51.5157 60.08 52.0257 59.9 52.3657 59.54C52.7057 59.18 52.8757 58.62 52.8757 57.86V55.43H60.0757V63.2C59.2557 63.76 58.0357 64.27 56.4157 64.73C54.8157 65.19 53.0757 65.42 51.1957 65.42ZM62.1061 60.08H63.6061V46.58H62.1061V41.66H75.8761C78.4561 41.66 80.4261 42.19 81.7861 43.25C83.1461 44.31 83.8261 46.03 83.8261 48.41C83.8261 49.75 83.5561 50.91 83.0161 51.89C82.4761 52.87 81.7061 53.55 80.7061 53.93L80.7361 54.23C82.6561 54.53 83.6161 55.71 83.6161 57.77V60.08H85.0261V65H75.5161V57.95C75.5161 57.17 75.3961 56.58 75.1561 56.18C74.9361 55.78 74.5761 55.51 74.0761 55.37C73.5961 55.23 72.9061 55.16 72.0061 55.16V60.08H73.9861V65H62.1061V60.08ZM73.6261 51.5C74.2061 51.5 74.6361 51.35 74.9161 51.05C75.2161 50.73 75.3661 50.24 75.3661 49.58V48.5C75.3661 47.84 75.2161 47.36 74.9161 47.06C74.6361 46.74 74.2061 46.58 73.6261 46.58H72.0061V51.5H73.6261ZM98.2802 65.42C94.6202 65.42 91.7902 64.46 89.7902 62.54C87.8102 60.62 86.8202 57.55 86.8202 53.33C86.8202 49.11 87.8102 46.04 89.7902 44.12C91.7902 42.2 94.6202 41.24 98.2802 41.24C101.94 41.24 104.76 42.2 106.74 44.12C108.74 46.04 109.74 49.11 109.74 53.33C109.74 57.55 108.74 60.62 106.74 62.54C104.76 64.46 101.94 65.42 98.2802 65.42ZM98.2802 60.08C98.9602 60.08 99.4702 59.9 99.8102 59.54C100.15 59.18 100.32 58.62 100.32 57.86V48.8C100.32 48.04 100.15 47.48 99.8102 47.12C99.4702 46.76 98.9602 46.58 98.2802 46.58C97.6002 46.58 97.0902 46.76 96.7502 47.12C96.4102 47.48 96.2402 48.04 96.2402 48.8V57.86C96.2402 58.64 96.4102 59.21 96.7502 59.57C97.0902 59.91 97.6002 60.08 98.2802 60.08ZM111.66 65V60.08H113.16V46.58H111.66V41.66H124.32V46.58H121.56V60.08H124.26V57.32H130.23V65H111.66ZM132.16 65V60.08H133.66V46.58H132.16V41.66H144.82V46.58H142.06V60.08H144.76V57.32H150.73V65H132.16ZM27.8662 90.08H29.3662V76.61H27.8662V71.66H40.0462C43.3862 71.66 46.0362 72.58 47.9962 74.42C49.9762 76.24 50.9662 79.21 50.9662 83.33C50.9662 87.45 49.9762 90.43 47.9962 92.27C46.0362 94.09 43.3862 95 40.0462 95H27.8662V90.08ZM39.5062 90.08C40.1862 90.08 40.6962 89.9 41.0362 89.54C41.3762 89.18 41.5462 88.62 41.5462 87.86V78.8C41.5462 77.32 40.8662 76.58 39.5062 76.58H37.7662V90.08H39.5062ZM64.1575 95.42C60.4975 95.42 57.6675 94.46 55.6675 92.54C53.6875 90.62 52.6975 87.55 52.6975 83.33C52.6975 79.11 53.6875 76.04 55.6675 74.12C57.6675 72.2 60.4975 71.24 64.1575 71.24C67.8175 71.24 70.6375 72.2 72.6175 74.12C74.6175 76.04 75.6175 79.11 75.6175 83.33C75.6175 87.55 74.6175 90.62 72.6175 92.54C70.6375 94.46 67.8175 95.42 64.1575 95.42ZM64.1575 90.08C64.8375 90.08 65.3475 89.9 65.6875 89.54C66.0275 89.18 66.1975 88.62 66.1975 87.86V78.8C66.1975 78.04 66.0275 77.48 65.6875 77.12C65.3475 76.76 64.8375 76.58 64.1575 76.58C63.4775 76.58 62.9675 76.76 62.6275 77.12C62.2875 77.48 62.1175 78.04 62.1175 78.8V87.86C62.1175 88.64 62.2875 89.21 62.6275 89.57C62.9675 89.91 63.4775 90.08 64.1575 90.08ZM102.601 71.66H112.201V76.58H111.001L106.531 95H97.5614L94.8314 82.04H94.5314L91.6514 95H82.6814L77.9114 76.58H76.7114V71.66H87.8114V76.58H86.6714L87.8414 84.23H88.1414L90.9914 71.66H99.6314L102.271 84.23H102.571L103.741 76.58H102.601V71.66ZM131.342 71.66H141.182V76.58H139.682V95H131.252L122.462 81.47V90.08H123.902V95H114.062V90.08H115.562V76.58H114.062V71.66H124.892L132.782 83.69V76.58H131.342V71.66Z" fill="#0C0E58"/>
<path d="M107.93 114C109.329 114 110.606 114.383 111.759 115.15C112.937 115.916 113.87 116.958 114.557 118.275C115.269 119.569 115.625 121.03 115.625 122.659C115.625 123.976 115.38 125.21 114.889 126.359C114.422 127.509 113.821 128.575 113.085 129.557C112.348 130.515 111.563 131.401 110.728 132.216C109.918 133.006 109.17 133.725 108.482 134.371C107.378 135.401 106.273 136.527 105.169 137.749C104.064 138.946 103.07 140.096 102.187 141.198C101.328 142.299 100.665 143.21 100.199 143.928C100.15 144.024 100.1 144.024 100.051 143.928C99.6096 143.21 98.9469 142.299 98.0632 141.198C97.1796 140.096 96.1856 138.946 95.0811 137.749C94.0011 136.527 92.8966 135.401 91.7675 134.371C91.0803 133.725 90.3194 133.006 89.4849 132.216C88.6749 131.401 87.9017 130.515 87.1654 129.557C86.429 128.575 85.8154 127.509 85.3245 126.359C84.8582 125.21 84.625 123.976 84.625 122.659C84.625 121.03 84.9686 119.569 85.6559 118.275C86.3677 116.958 87.3004 115.916 88.454 115.15C89.6321 114.383 90.9207 114 92.3198 114C94.0625 114 95.6333 114.467 97.0324 115.401C98.4314 116.311 99.4009 117.76 99.9409 119.749C99.99 119.916 100.051 120 100.125 120C100.199 120 100.26 119.916 100.309 119.749C100.849 117.76 101.819 116.311 103.218 115.401C104.641 114.467 106.212 114 107.93 114Z" fill="#FF0000"/>
<path d="M65.126 145L53.002 128.5L59.126 128.5L59.126 114L71.126 114L71.126 128.5L77.25 128.5L65.126 145Z" fill="black"/>
</svg>
