<svg width="450" height="421" viewBox="0 0 450 421" fill="none" xmlns="http://www.w3.org/2000/svg">
<path d="M201.279 416.507C199.492 416.782 197.789 415.651 197.351 413.897C191.297 389.682 145.517 337.348 7.0713 340.191C5.68262 340.219 4.40852 339.423 3.82423 338.163C3.23994 336.903 3.45603 335.417 4.37501 334.375C30.5796 304.676 73.3691 221.875 34.1055 129.325C33.5885 128.107 33.8032 126.7 34.6602 125.692C35.5172 124.683 36.8703 124.244 38.1563 124.558C65.7316 131.276 108.298 133.362 146.267 117.962C183.967 102.671 217.458 70.0346 227.259 6.46696C227.507 4.85618 228.835 3.63011 230.46 3.50993C232.085 3.38978 233.579 4.40731 234.062 5.96403C242.595 33.4916 263.322 74.1657 297.641 106.343C331.874 138.44 379.559 162.038 442.32 155.874C444.21 155.689 445.902 157.043 446.136 158.927C446.369 160.811 445.057 162.538 443.18 162.819C419.415 166.372 369.419 193.957 368.021 277.876L368.006 278.149C367.878 279.501 366.974 280.668 365.676 281.121C337.806 290.864 296.238 309.274 262.178 332.766C245.145 344.513 230.139 357.431 219.648 371.044C209.157 384.66 203.381 398.703 204.239 412.836C204.349 414.641 203.066 416.232 201.279 416.507Z" fill="#F05291" stroke="#F05291" stroke-width="7" stroke-linecap="round" stroke-linejoin="round"/>
</svg>
