<svg width="400" height="405" viewBox="0 0 400 405" fill="none" xmlns="http://www.w3.org/2000/svg">
<path d="M269.979 395.904C268.438 396.851 266.43 396.468 265.345 395.021C250.379 375.045 187.893 344.547 61.3722 400.831C60.1031 401.395 58.6202 401.156 57.5932 400.22C56.5661 399.285 56.1892 397.831 56.6326 396.515C69.2771 358.981 76.627 266.067 4.55961 195.971C3.61077 195.049 3.26339 193.669 3.66244 192.407C4.06148 191.145 5.1389 190.216 6.44575 190.006C34.4695 185.511 74.5164 170.935 103.548 142.022C132.374 113.313 150.596 70.2468 134.992 7.84961C134.596 6.26849 135.345 4.62374 136.797 3.88294C138.248 3.14218 140.02 3.50121 141.068 4.74919C159.604 26.8173 194.476 56.2776 238.584 72.637C282.583 88.9557 335.686 92.2261 391.152 62.2169C392.822 61.3137 394.907 61.9059 395.853 63.5521C396.798 65.1985 396.258 67.2986 394.636 68.2852C374.107 80.7722 338.712 125.58 369.95 203.48L370.042 203.737C370.448 205.033 370.067 206.459 369.047 207.381C347.132 227.165 315.95 260.247 293.657 295.105C282.51 312.536 273.683 330.26 269.29 346.875C264.896 363.493 265.015 378.678 271.284 391.373C272.085 392.994 271.519 394.958 269.979 395.904Z" fill="#E00100" stroke="#E00100" stroke-width="7" stroke-linecap="round" stroke-linejoin="round"/>
</svg>
