<svg width="541" height="606" viewBox="0 0 541 606" fill="none" xmlns="http://www.w3.org/2000/svg">
<path d="M395.158 1.12951C450.911 -10.5253 444.92 70.8819 434.955 113.042C433.387 130.485 448.972 111.116 456.96 99.2509C478.98 63.6878 489.655 68.9181 492.24 75.9786C499.652 98.8333 476.711 155.596 464.314 181.12C426.089 268.086 322.468 352.813 275.436 384.306C256.345 394.993 252.31 405.064 252.679 408.764C249.623 425.86 289.335 413.108 309.573 404.595C350.797 387.988 439.257 291.774 478.334 245.742C499.752 218.712 516.541 212.694 522.259 213.064C556.693 211.762 534.881 258.254 519.671 281.662C474.806 347.614 396.767 431.585 363.355 465.326C242.725 588.098 150.362 609.613 119.259 605.024C66.417 590.692 105.93 544.869 132.291 523.75C166.649 495.026 174.45 477.359 174.056 472.115C173.432 456.562 143.796 462.418 129.056 467.29C38.3517 493.967 6.51021 468.669 1.92754 452.685C-14.8259 402.19 81.77 378.969 132.162 373.67C241.98 360.393 328.242 290.34 357.646 256.972C373.617 236.701 370.764 228.348 367.341 226.705C363.959 223.796 353.367 231.256 348.494 235.35C316.736 264.402 291.592 276.886 282.99 279.496C177.464 306.044 189.69 256.775 208.993 228.822C223.829 207.087 278.876 150.172 304.545 124.431C335.533 93.5396 350.654 64.6975 354.341 54.1379C364.886 19.1323 385.946 4.21332 395.158 1.12951Z" fill="#B2D3FF"/>
</svg>
