<svg width="167" height="117" viewBox="0 0 167 117" fill="none" xmlns="http://www.w3.org/2000/svg">
<g filter="url(#filter0_d_1760_1131)">
<path d="M76.3154 7.58691C76.8673 6.78155 77.838 6.3708 78.8003 6.53569C79.7623 6.70067 80.5405 7.41069 80.7929 8.35355C81.1555 9.70922 83.0176 14.3175 87.2875 19.8405C89.3476 22.3282 92.4073 26.4359 95.0073 30.8213C96.8845 33.9877 98.6769 37.5511 99.5538 40.8541C100.52 39.9357 101.725 38.159 102.542 34.8614C103.083 31.6636 105.242 23.8551 109.915 15.7685C110.495 14.7649 111.689 14.2921 112.799 14.6259C113.909 14.9599 114.644 16.013 114.574 17.1703C114.418 19.765 114.683 25.8444 116.656 30.1809L116.852 30.5948L116.91 30.7206C118.384 34.1755 120.305 42.3798 118.379 51.567C119.739 50.2365 122.462 47.4257 126.49 42.847L126.588 42.7414C127.75 41.5648 129.725 39.816 131.978 38.288C134.159 36.8084 136.937 35.3007 139.638 35.0166C140.654 34.9098 141.633 35.4327 142.11 36.3361C142.587 37.2396 142.467 38.3427 141.806 39.1217C140.993 40.0786 139.697 41.8568 138.581 43.9408C137.446 46.0604 136.626 48.2598 136.513 50.1183C136.314 53.4132 135.561 58.5188 133.918 63.2464C132.836 66.3589 131.243 69.6667 128.897 72.0738C129.182 72.0562 129.48 72.0368 129.791 72.0143C129.816 72.0125 129.842 72.0122 129.867 72.0111C129.908 72.0027 130.006 71.9829 130.174 71.9348C130.532 71.8323 131.087 71.6446 131.877 71.3304C133.453 70.7034 135.862 69.6114 139.344 67.7988C141.122 66.8186 144.077 65.4797 147.399 64.5082C150.715 63.5383 154.67 62.8526 158.264 63.4734C159.344 63.66 160.176 64.5275 160.317 65.6139C160.459 66.7005 159.876 67.7531 158.88 68.2096C156.789 69.1674 153.526 70.8989 150.618 72.9327C149.165 73.9489 147.852 75.0042 146.83 76.0389C145.78 77.1014 145.185 77.9946 144.948 78.6655C144.929 78.7209 144.907 78.776 144.883 78.8299C144.166 80.4854 142.869 82.9794 141.257 85.1637C140.451 86.2565 139.514 87.3426 138.475 88.2123C137.458 89.0628 136.163 89.8583 134.65 90.0669C134.538 90.0823 134.426 90.0904 134.313 90.0906L24.0507 90.2641C23.3216 90.2652 22.6281 89.9477 22.1524 89.3951C21.6766 88.8423 21.4655 88.1089 21.5752 87.3879C22.0939 83.9795 25.1053 78.2927 32.447 75.078C30.9926 74.6749 29.0704 74.3338 26.5772 74.1832C23.6877 74.0085 19.3024 73.6138 15.5354 72.9894C13.6657 72.6796 11.8497 72.2978 10.4215 71.8253C9.71619 71.592 8.99341 71.2997 8.37856 70.9211C7.8572 70.6001 6.91047 69.9163 6.58457 68.6985C6.38823 67.9645 6.53652 67.1802 6.98724 66.5685C7.43792 65.957 8.14251 65.5841 8.90153 65.5542C10.1879 65.5036 12.2913 65.2752 14.2918 64.7676C16.435 64.2238 17.8626 63.5031 18.4212 62.8453C18.4977 62.7551 18.5808 62.6706 18.6693 62.5922C21.0264 60.5037 25.2451 57.7826 30.4858 56.1165C33.2719 55.2308 36.3869 54.6315 39.6886 54.6025C38.0227 53.3621 36.274 52.2031 34.6602 51.3929C34.6504 51.388 34.6406 51.3825 34.6308 51.3775C32.1024 50.0657 28.3055 47.9629 25.1318 45.9097C23.5554 44.8898 22.0576 43.8347 20.9361 42.861C20.3815 42.3795 19.8398 41.8496 19.4213 41.296C19.0799 40.8446 18.4524 39.9111 18.5246 38.7148C18.6079 37.3366 19.7926 36.2869 21.1708 36.3701C25.9555 36.6593 36.8048 37.1641 44.2496 37.041L45.6907 37.0078C47.7923 36.9129 51.6476 37.4112 55.6786 39.4204C55.2578 38.4 54.7528 37.3398 54.1474 36.2979C52.7055 34.0589 50.4954 30.5697 48.4879 27.277C46.508 24.0295 44.5875 20.754 43.9017 19.1466C43.4718 18.1385 43.7491 16.9676 44.585 16.2588C45.421 15.5502 46.6207 15.469 47.5449 16.0581C48.7613 16.8334 50.7144 18.0485 52.6039 19.1658C54.5596 20.3222 56.2509 21.2544 57.043 21.5727C57.0944 21.5934 57.1454 21.6166 57.1954 21.6407C60.3293 23.1494 65.2365 25.8049 69.855 28.9108C72.3513 30.5895 74.8906 32.4834 77.0297 34.4719C77.0726 33.5026 77.1012 32.4945 77.1038 31.4807C77.1128 27.9455 76.8241 24.6749 76.1043 22.669C76.0974 22.6499 76.0907 22.6304 76.0843 22.6111C75.5498 20.9988 74.9175 18.4097 74.7192 15.7379C74.5301 13.1915 74.6835 9.96824 76.3154 7.58691Z" fill="#FFAFE3" stroke="white" stroke-width="5" stroke-linejoin="round"/>
<mask id="path-2-outside-1_1760_1131" maskUnits="userSpaceOnUse" x="20.4658" y="87.5679" width="108" height="26" fill="black">
<rect fill="white" x="20.4658" y="87.5679" width="108" height="26"/>
<path d="M77.7041 95.5366H66.9004V98.5288H77.2676L77.2676 101.417H66.9004L66.9004 104.933H78.4229V107.925H55.7227V92.5698H77.7041L77.7041 95.5366ZM41.8271 99.9243V92.5688H52.4434V107.924H41.7021L36.207 100.247L36.207 107.924H25.4658V92.5688H36.7686L41.8271 99.9243ZM92.6475 102.261L95.7383 92.5679H105.98L108.915 102.261L111.851 92.5679H122.716L116.721 107.923L103.545 107.923L100.797 100.534L98.1738 107.923H84.7793L78.8779 92.5679H89.6191L92.6475 102.261Z"/>
</mask>
<path d="M77.7041 95.5366H66.9004V98.5288H77.2676L77.2676 101.417H66.9004L66.9004 104.933H78.4229V107.925H55.7227V92.5698H77.7041L77.7041 95.5366ZM41.8271 99.9243V92.5688H52.4434V107.924H41.7021L36.207 100.247L36.207 107.924H25.4658V92.5688H36.7686L41.8271 99.9243ZM92.6475 102.261L95.7383 92.5679H105.98L108.915 102.261L111.851 92.5679H122.716L116.721 107.923L103.545 107.923L100.797 100.534L98.1738 107.923H84.7793L78.8779 92.5679H89.6191L92.6475 102.261Z" fill="black"/>
<path d="M77.7041 95.5366V100.537C80.4655 100.537 82.7041 98.298 82.7041 95.5366H77.7041ZM66.9004 95.5366V90.5366C64.139 90.5366 61.9004 92.7752 61.9004 95.5366H66.9004ZM66.9004 98.5288H61.9004C61.9004 101.29 64.139 103.529 66.9004 103.529V98.5288ZM77.2676 98.5288H82.2676C82.2676 95.7674 80.029 93.5288 77.2676 93.5288V98.5288ZM77.2676 101.417V106.417C78.5937 106.417 79.8654 105.89 80.8031 104.952C81.7408 104.014 82.2676 102.743 82.2676 101.417H77.2676ZM66.9004 101.417V96.4165C65.5743 96.4165 64.3025 96.9433 63.3649 97.881C62.4272 98.8187 61.9004 100.09 61.9004 101.417H66.9004ZM66.9004 104.933H61.9004C61.9004 107.695 64.139 109.933 66.9004 109.933V104.933ZM78.4229 104.933H83.4229C83.4229 102.172 81.1843 99.9331 78.4229 99.9331V104.933ZM78.4229 107.925V112.925C81.1843 112.925 83.4229 110.687 83.4229 107.925H78.4229ZM55.7227 107.925H50.7227C50.7227 110.687 52.9612 112.925 55.7227 112.925V107.925ZM55.7227 92.5698V87.5698C52.9612 87.5698 50.7227 89.8084 50.7227 92.5698H55.7227ZM77.7041 92.5698H82.7041C82.7041 91.2437 82.1773 89.972 81.2396 89.0343C80.302 88.0966 79.0302 87.5698 77.7041 87.5698V92.5698ZM41.8271 99.9243L37.7074 102.758C38.9484 104.562 41.2192 105.349 43.3106 104.699C45.402 104.049 46.8271 102.114 46.8271 99.9243H41.8271ZM41.8271 92.5688V87.5688C39.0657 87.5688 36.8271 89.8074 36.8271 92.5688H41.8271ZM52.4434 92.5688H57.4434C57.4434 89.8074 55.2048 87.5688 52.4434 87.5688V92.5688ZM52.4434 107.924V112.924C55.2048 112.924 57.4434 110.686 57.4434 107.924H52.4434ZM41.7021 107.924L37.6362 110.834C38.5751 112.146 40.0891 112.924 41.7021 112.924V107.924ZM36.207 100.247L40.2729 97.3365C39.0084 95.5697 36.7476 94.8218 34.6789 95.4858C32.6102 96.1499 31.207 98.0739 31.207 100.247H36.207ZM36.207 107.924V112.924C38.9685 112.924 41.207 110.686 41.207 107.924H36.207ZM25.4658 107.924H20.4658C20.4658 110.686 22.7044 112.924 25.4658 112.924V107.924ZM25.4658 92.5688V87.5688C22.7044 87.5688 20.4658 89.8074 20.4658 92.5688H25.4658ZM36.7686 92.5688L40.8883 89.7356C39.9555 88.3792 38.4148 87.5688 36.7686 87.5688V92.5688ZM92.6475 102.261L87.8749 103.752C88.5255 105.835 90.4511 107.255 92.6328 107.261C94.8145 107.268 96.7484 105.859 97.4112 103.78L92.6475 102.261ZM95.7383 92.5679V87.5679C93.562 87.5679 91.6357 88.9755 90.9746 91.0489L95.7383 92.5679ZM105.98 92.5679L110.766 91.1191C110.128 89.0102 108.184 87.5679 105.98 87.5679V92.5679ZM108.915 102.261L104.13 103.71C104.768 105.819 106.711 107.261 108.915 107.261C111.118 107.261 113.062 105.819 113.7 103.71L108.915 102.261ZM111.851 92.5679V87.5679C109.647 87.5679 107.704 89.01 107.065 91.1187L111.851 92.5679ZM122.716 92.5679L127.373 94.3863C127.974 92.8476 127.776 91.1115 126.845 89.7476C125.913 88.3837 124.368 87.5679 122.716 87.5679V92.5679ZM116.721 107.923V112.923C118.78 112.923 120.629 111.66 121.378 109.742L116.721 107.923ZM103.545 107.923L98.8585 109.666C99.5867 111.624 101.456 112.923 103.545 112.923V107.923ZM100.797 100.534L105.483 98.7909C104.75 96.8199 102.862 95.5181 100.76 95.5338C98.6567 95.5495 96.7884 96.8794 96.0849 98.8611L100.797 100.534ZM98.1738 107.923V112.923C100.29 112.923 102.178 111.591 102.886 109.596L98.1738 107.923ZM84.7793 107.923L80.1121 109.717C80.8544 111.649 82.71 112.923 84.7793 112.923V107.923ZM78.8779 92.5679V87.5679C77.2308 87.5679 75.6894 88.3791 74.7567 89.7367C73.8241 91.0943 73.6199 92.8241 74.2107 94.3616L78.8779 92.5679ZM89.6191 92.5679L94.3917 91.0769C93.7395 88.9893 91.8062 87.5679 89.6191 87.5679V92.5679ZM77.7041 95.5366V90.5366H66.9004V95.5366V100.537H77.7041V95.5366ZM66.9004 95.5366H61.9004V98.5288H66.9004H71.9004V95.5366H66.9004ZM66.9004 98.5288V103.529H77.2676V98.5288V93.5288H66.9004V98.5288ZM77.2676 98.5288H72.2676V101.417H77.2676H82.2676V98.5288H77.2676ZM77.2676 101.417V96.4165H66.9004V101.417V106.417H77.2676V101.417ZM66.9004 101.417H61.9004V104.933H66.9004H71.9004V101.417H66.9004ZM66.9004 104.933V109.933H78.4229V104.933V99.9331H66.9004V104.933ZM78.4229 104.933H73.4229V107.925H78.4229H83.4229V104.933H78.4229ZM78.4229 107.925V102.925H55.7227V107.925V112.925H78.4229V107.925ZM55.7227 107.925H60.7227V92.5698H55.7227H50.7227V107.925H55.7227ZM55.7227 92.5698V97.5698H77.7041V92.5698V87.5698H55.7227V92.5698ZM77.7041 92.5698H72.7041V95.5366H77.7041H82.7041V92.5698H77.7041ZM41.8271 99.9243H46.8271V92.5688H41.8271H36.8271V99.9243H41.8271ZM41.8271 92.5688V97.5688H52.4434V92.5688V87.5688H41.8271V92.5688ZM52.4434 92.5688H47.4434V107.924H52.4434H57.4434V92.5688H52.4434ZM52.4434 107.924V102.924H41.7021V107.924V112.924H52.4434V107.924ZM41.7021 107.924L45.7681 105.014L40.2729 97.3365L36.207 100.247L32.1411 103.157L37.6362 110.834L41.7021 107.924ZM36.207 100.247H31.207V107.924H36.207H41.207V100.247H36.207ZM36.207 107.924V102.924H25.4658V107.924V112.924H36.207V107.924ZM25.4658 107.924H30.4658V92.5688H25.4658H20.4658V107.924H25.4658ZM25.4658 92.5688V97.5688H36.7686V92.5688V87.5688H25.4658V92.5688ZM36.7686 92.5688L32.6488 95.4021L37.7074 102.758L41.8271 99.9243L45.9469 97.091L40.8883 89.7356L36.7686 92.5688ZM92.6475 102.261L97.4112 103.78L100.502 94.0868L95.7383 92.5679L90.9746 91.0489L87.8838 100.742L92.6475 102.261ZM95.7383 92.5679V97.5679L105.98 97.5679V92.5679V87.5679L95.7383 87.5679V92.5679ZM105.98 92.5679L101.195 94.0166L104.13 103.71L108.915 102.261L113.701 100.812L110.766 91.1191L105.98 92.5679ZM108.915 102.261L113.7 103.71L116.636 94.0171L111.851 92.5679L107.065 91.1187L104.13 100.812L108.915 102.261ZM111.851 92.5679V97.5679H122.716V92.5679V87.5679H111.851V92.5679ZM122.716 92.5679L118.058 90.7494L112.063 106.105L116.721 107.923L121.378 109.742L127.373 94.3863L122.716 92.5679ZM116.721 107.923V102.923L103.545 102.923V107.923V112.923L116.721 112.923V107.923ZM103.545 107.923L108.231 106.181L105.483 98.7909L100.797 100.534L96.1104 102.276L98.8585 109.666L103.545 107.923ZM100.797 100.534L96.0849 98.8611L93.4619 106.251L98.1738 107.923L102.886 109.596L105.509 102.206L100.797 100.534ZM98.1738 107.923V102.923H84.7793V107.923V112.923H98.1738V107.923ZM84.7793 107.923L89.4465 106.13L83.5451 90.7742L78.8779 92.5679L74.2107 94.3616L80.1121 109.717L84.7793 107.923ZM78.8779 92.5679V97.5679H89.6191V92.5679V87.5679H78.8779V92.5679ZM89.6191 92.5679L84.8466 94.0589L87.8749 103.752L92.6475 102.261L97.42 100.77L94.3917 91.0769L89.6191 92.5679Z" fill="white" mask="url(#path-2-outside-1_1760_1131)"/>
</g>
<defs>
<filter id="filter0_d_1760_1131" x="0" y="0" width="166.839" height="116.925" filterUnits="userSpaceOnUse" color-interpolation-filters="sRGB">
<feFlood flood-opacity="0" result="BackgroundImageFix"/>
<feColorMatrix in="SourceAlpha" type="matrix" values="0 0 0 0 0 0 0 0 0 0 0 0 0 0 0 0 0 0 127 0" result="hardAlpha"/>
<feOffset/>
<feGaussianBlur stdDeviation="2"/>
<feComposite in2="hardAlpha" operator="out"/>
<feColorMatrix type="matrix" values="0 0 0 0 0 0 0 0 0 0 0 0 0 0 0 0 0 0 0.25 0"/>
<feBlend mode="normal" in2="BackgroundImageFix" result="effect1_dropShadow_1760_1131"/>
<feBlend mode="normal" in="SourceGraphic" in2="effect1_dropShadow_1760_1131" result="shape"/>
</filter>
</defs>
</svg>
